<svg xmlns="http://www.w3.org/2000/svg" xmlns:xlink="http://www.w3.org/1999/xlink" width="331" height="265" viewBox="0 0 331 265">
    <defs>
        <path id="7nhhcpscna" d="M0.267 0.283L21.725 0.283 21.725 24.911 0.267 24.911z"/>
        <path id="19bat7rzqc" d="M0 0.258L33.067 0.258 33.067 43.292 0 43.292z"/>
        <path id="yqv28zd41e" d="M0.015 0.102L25.83 0.102 25.83 35.83 0.015 35.83z"/>
        <path id="aw4k2q1vbg" d="M0.296 0.086L49.673 0.086 49.673 89 0.296 89z"/>
    </defs>
    <g fill="none" fill-rule="evenodd">
        <g>
            <g>
                <path fill="#0064AA" d="M63 72.504c0 1.325-.186 2.238-.558 2.742-.373.503-1.064.754-2.073.754H56.14c-1.011 0-1.675-.265-1.994-.794-.318-.53-.478-1.403-.478-2.622V54.228c0-.636-.08-1.073-.24-1.31-.16-.24-.505-.359-1.036-.359h-4.786c-.531 0-.877.12-1.037.358-.16.238-.24.675-.24 1.311v18.356c0 1.219-.16 2.092-.477 2.622-.32.53-.985.794-1.994.794H39.63c-1.01 0-1.702-.25-2.074-.754-.371-.504-.557-1.417-.557-2.742V26.417c0-1.271.198-2.158.598-2.662.398-.502 1.076-.755 2.033-.755h4.308c1.594 0 2.392 1.113 2.392 3.337v15.337c0 1.006.4 1.51 1.196 1.51h4.945c.798 0 1.197-.504 1.197-1.51V26.337c0-2.224.797-3.337 2.392-3.337h4.308c.956 0 1.635.253 2.033.755.4.504.598 1.391.598 2.662v46.087zM89 72.584C89 74.86 88.082 76 86.249 76h-16.5c-1.079 0-1.806-.239-2.184-.715-.376-.477-.565-1.403-.565-2.781V26.497c0-1.324.202-2.238.607-2.741.403-.503 1.117-.756 2.142-.756h16.015c1.024 0 1.711.2 2.062.596.35.398.526 1.232.526 2.504v2.94c0 1.324-.175 2.212-.526 2.661-.35.45-1.038.676-2.062.676h-7.926c-.594 0-.986.106-1.172.317-.19.213-.285.69-.285 1.43v7.39c0 .743.068 1.206.204 1.391.134.186.552.279 1.253.279h4.044c.916 0 1.536.185 1.86.555.324.372.485 1.087.485 2.146v4.052c0 1.007-.175 1.696-.526 2.066-.35.372-.957.556-1.819.556h-4.044c-.594 0-.986.08-1.172.239-.19.158-.285.477-.285.953v11.125c0 .689.108 1.152.325 1.39.214.24.673.358 1.375.358h8.007c1.079 0 1.832.252 2.264.755.431.503.648 1.39.648 2.661v2.544zM108 62.412c0 3.868-.628 6.94-1.88 9.218-1.635 2.914-4.387 4.37-8.255 4.37H93.86c-1.2 0-1.976-.211-2.329-.636-.356-.423-.531-1.297-.531-2.621v-2.94c0-1.324.175-2.186.531-2.584.353-.397 1.048-.595 2.084-.595h2.125c.98 0 1.66-.238 2.043-.715.381-.477.572-1.404.572-2.781v-36.79c0-1.377.177-2.277.53-2.702.355-.423 1.106-.636 2.25-.636h4.087c1.142 0 1.89.213 2.247.636.352.425.531 1.299.531 2.622v36.154zM119 73.236c0 1.04-.279 2.353-.839 3.939l-1.448 4.185c-.357 1.093-.89 1.64-1.602 1.64h-3.661c-.865 0-1.12-.465-.764-1.395l1.374-3.528c.355-.93.23-1.395-.382-1.395h-.457c-.814 0-1.221-.683-1.221-2.05v-3.94c0-1.42.14-2.392.42-2.912.279-.519.928-.78 1.945-.78h4.272c1.016 0 1.664.261 1.943.78.28.52.42 1.491.42 2.913v2.543zM52.606 108.845c0-3.071-.199-5.085-.598-6.038-.399-.954-1.074-1.43-2.03-1.43h-2.31c-.426 0-.743.093-.955.277-.213.187-.319.57-.319 1.153v11.76c0 .902.4 1.35 1.195 1.35h2.627c.85 0 1.46-.436 1.831-1.31.371-.875.559-2.794.559-5.762m9.394.08c0 5.352-.757 9.416-2.269 12.197-1.512 2.781-3.73 4.172-6.649 4.172h-6.688v16.29c0 1.377-.159 2.291-.476 2.74-.32.45-1.01.676-2.07.676h-4.3c-1.062 0-1.752-.211-2.071-.636-.318-.423-.477-1.35-.477-2.78V95.655c0-1.377.185-2.33.557-2.86.37-.53 1.035-.795 1.99-.795H51.81C58.603 92 62 97.642 62 108.925M84 141.584c0 1.218-.228 2.092-.682 2.622-.456.53-1.218.794-2.288.794H66.65c-1.072 0-1.78-.225-2.128-.676-.35-.449-.522-1.39-.522-2.82V95.417c0-1.218.2-2.092.603-2.622.4-.53 1.083-.795 2.047-.795h4.258c1.017 0 1.7.239 2.048.716.348.476.522 1.378.522 2.7v38.54c0 1.111.428 1.668 1.286 1.668h6.505c1.017 0 1.728.238 2.13.715.4.477.601 1.35.601 2.622v2.623zM100.553 118.795c-.055-7.76-.242-12.612-.566-14.553-.322-1.94-1.319-2.91-2.988-2.91s-2.677.997-3.027 2.992c-.35 1.996-.525 6.82-.525 14.471.053 7.818.242 12.737.564 14.758.324 2.023 1.32 3.034 2.988 3.034 1.669 0 2.678-1.038 3.03-3.115.35-2.077.524-6.97.524-14.677zm9.447 0v5.33c0 1.147-.04 2.733-.12 4.755-.081 2.023-.202 3.54-.364 4.55-.161 1.012-.39 2.283-.686 3.813-.298 1.53-.66 2.679-1.09 3.444-.432.765-.969 1.627-1.616 2.582-.645.957-1.4 1.654-2.261 2.091-.862.438-1.87.82-3.027 1.148-1.16.328-2.437.492-3.837.492-1.453 0-2.758-.164-3.915-.492-1.16-.328-2.168-.71-3.03-1.148-.86-.437-1.614-1.148-2.26-2.132-.646-.984-1.184-1.845-1.615-2.583-.43-.737-.794-1.885-1.09-3.443-.297-1.558-.511-2.814-.645-3.771-.136-.957-.243-2.473-.324-4.55-.08-2.078-.12-3.663-.12-4.757V113.465c0-1.092.04-2.664.12-4.714.081-2.05.188-3.538.324-4.468.134-.929.348-2.173.645-3.731.296-1.558.66-2.692 1.09-3.402.43-.71.969-1.544 1.616-2.501.645-.956 1.398-1.64 2.26-2.05.861-.41 1.87-.778 3.029-1.107 1.157-.328 2.462-.492 3.915-.492 5.761 0 9.501 2.46 11.225 7.38 1.183 3.225 1.776 9.293 1.776 18.201v2.214zM140 129.314c0 2.8-.135 5.044-.4 6.733-.27 1.691-.817 3.276-1.646 4.754-.83 1.48-2.086 2.549-3.771 3.208-1.687.661-3.867.991-6.54.991-1.5 0-2.85-.107-4.054-.318-1.203-.21-2.274-.527-3.21-.95-.936-.422-1.74-.95-2.408-1.584-.669-.634-1.232-1.387-1.684-2.258-.456-.871-.83-1.848-1.124-2.932-.295-1.082-.522-2.27-.683-3.564-.16-1.294-.28-2.706-.36-4.24-.08-1.53-.12-3.167-.12-4.91v-5.625c.052-10.034.426-16.505 1.122-19.41.963-4.17 3.023-6.521 6.18-7.05.589-.106 1.204-.159 1.845-.159h10.914c1.07 0 1.792.212 2.168.634.373.424.56 1.32.56 2.693v2.536c0 1.32-.173 2.231-.52 2.732-.349.503-1.004.754-1.966.754h-5.778c-1.926 0-3.158.316-3.691.95-.804 1.004-1.232 4.437-1.285 10.299V130.423c0 3.38 1.418 5.07 4.254 5.07 1.122 0 2.046-.369 2.767-1.109.722-.74 1.085-1.77 1.085-3.09v-7.764c0-1.372-.322-2.06-.963-2.06h-2.328c-.641 0-1.043-.17-1.204-.514-.161-.343-.241-.991-.241-1.941v-3.644c0-1.215.187-2.06.562-2.535.374-.476 1.177-.713 2.407-.713h7.625c1.016 0 1.685.265 2.006.792.32.528.481 1.426.481 2.693v13.706z" transform="translate(-8 -85) translate(8 85)"/>
                <g>
                    <g transform="translate(-8 -85) translate(8 85) translate(27 168) translate(58)">
                        <mask id="vpfcz6ddlb" fill="#fff">
                            <use xlink:href="#7nhhcpscna"/>
                        </mask>
                        <path fill="#FFDC00" d="M20.825 17.112v-.001c0-.016-.006-.032-.01-.047-.003-.017-.003-.034-.01-.048v-.001c-.004-.01-.01-.015-.016-.023-.01-.02-.021-.039-.037-.054-.012-.012-.027-.02-.042-.029-.012-.008-.022-.017-.035-.022-.022-.01-.047-.013-.072-.015-.007 0-.012-.004-.018-.004h-.001c-.018 0-.034.007-.051.01-.015.004-.03.004-.044.01-2.58 1.138-5.475.764-7.45.249-2.157-.561-3.718-1.408-3.734-1.417-.056-.03-.122-.038-.183-.019-.062.02-.113.062-.143.12-1.124 2.136-1.943 4.988-2.435 7.019-.002.002-.001.006-.003.009l-.006.027c-.193.797-.327 1.436-.398 1.79-3.573-1.655-5.509-4.144-5.87-4.64.136-.525.728-2.783 1.17-4.007C3.766 9.582 7.679 6.126 12.47 6.275l.011-.002c.016 0 .03-.004.046-.008.016-.003.032-.006.047-.013l.012-.003c.01-.006.017-.015.027-.022.012-.009.025-.017.036-.028.012-.013.02-.027.03-.042.007-.012.015-.023.02-.037.006-.016.009-.033.012-.05.001-.011.006-.02.007-.031l-.002-.012c0-.016-.005-.032-.008-.048s-.007-.032-.013-.047l-.003-.012c-.272-.544-.416-1.151-.416-1.755 0-2.14 1.718-3.882 3.829-3.882s3.829 1.741 3.829 3.882c0 1.374-.727 2.662-1.896 3.362l-.007.007c-.013.008-.023.02-.035.032-.011.011-.024.021-.033.035-.002.002-.005.003-.006.006-.007.01-.008.022-.012.032-.008.016-.015.031-.019.049-.003.015-.002.03-.002.045 0 .016-.002.031.001.047.003.017.01.032.016.048.005.011.006.023.012.034.002.003.005.005.006.008l.012.016c.015.02.033.036.053.05l.007.008c3.7 2.376 4.161 6.798 3.358 10.144-.687 2.864-.183 5.776.046 6.823l-3.955-1.03c2.03-1.544 3.345-4.004 3.345-6.769" mask="url(#vpfcz6ddlb)"/>
                    </g>
                    <g>
                        <path fill="#FFD9B0" d="M69.94 19.137c.383.053.772.081 1.165.081 1.664 0 3.215-.485 4.523-1.317l1.435.368c.256 3.294 3.593 45.88 5.026 48.125.554.869 1.605 1.648 2.823 2.551 2.025 1.501 4.32 3.202 4.909 5.803.129.57.17.88.179 1.05-.251-.245-.69-.824-1.085-1.347-.922-1.218-2.184-2.886-3.398-3.662-.96-.614-1.24-.712-1.424-.5-.22.254.001.526 1.082 1.77.496.572 1.058 1.22 1.474 1.79 1.375 1.886 1.502 4.748 1.455 6.286-.005.173-.026.27-.043.32-.378-.246-1.37-2.127-1.7-4.305-.308-2.038-2.02-3.848-3.391-4.778-.404-.274-1.148-.719-1.574-.621-.214.05-.283.17-.304.263-.056.255.175.433.681.822.712.548 1.905 1.466 2.573 2.863.837 1.749 1.272 5.949.23 7.821-.067.12-.115.166-.137.184-.329-.213-.829-2.402-1.08-5.658-.227-2.948-3.166-5.79-4.229-5.857-.25-.017-.353.128-.385.19-.171.342.23.862 1.418 2.26.555.652 1.129 1.326 1.29 1.668.383.813 1.044 3.755-.216 6.05-.076.14-.133.217-.17.259-.194-.378-.275-1.962-.33-3.034-.103-2.009-.185-3.258-.566-3.612-.148-.136-.383-.4-.68-.736-1.277-1.441-3.42-3.856-5.178-3.71-1.004.08-2.184.927-3.431 1.822-1.376.987-2.799 2.006-3.783 1.79-.343-.077-.377-.216-.388-.262-.103-.418.478-1.506 3.828-4.31 1.574-1.316 4.208-3.52 2.474-11.996-1.573-7.693-6.627-34.589-7.133-37.284 2.602-.626 4.025-1.131 4.048-1.14.004-.001.007-.005.012-.007" transform="translate(-8 -85) translate(8 85) translate(27 168) translate(0 6)"/>
                        <path fill="#FFD9B0" d="M71.4 12.05c1.969.5 4.82.864 7.44-.128-.188 4.118-3.643 7.411-7.864 7.411-2.05 0-3.982-.77-5.456-2.17.472-1.878 1.233-4.443 2.261-6.422.508.248 1.855.861 3.62 1.31" transform="translate(-8 -85) translate(8 85) translate(27 168) translate(0 6)"/>
                        <path fill="#0064AA" d="M31.32 21.562c1.084-.736 2.572-1.186 4.455-1.339 7.635-.62 22.747-4.147 24.117-4.47 1.074.995 2.728 2.246 5.006 3.2.031.014.065.02.098.02.04 0 .079-.009.115-.027.066-.034.112-.095.126-.166.001-.006.125-.644.36-1.602 1.017.884 2.222 1.506 3.523 1.833-3.417 1.01-17.53 4.636-37.8 2.551" transform="translate(-8 -85) translate(8 85) translate(27 168) translate(0 6)"/>
                        <path fill="#FFDC00" d="M22.32 42.818c-.491.287-1.982 1.187-3.96 2.651l1.614-11.099c.59 2.538 1.361 5.344 2.346 8.448" transform="translate(-8 -85) translate(8 85) translate(27 168) translate(0 6)"/>
                        <path fill="#0064AA" d="M59.941 7.994c-.615-1.87-3.18-7.879-10.579-7.18-8.654.82-10.411 6.06-10.482 6.282v.006c-5.31 1.516-11.858 3.311-14.203 3.643-.439.062-.866.182-1.277.354C30.47 2.484 41.408.317 49.42.035c7.518-.263 13.904 1.03 15.74 1.446-2.07 1.342-3.838 3.539-5.219 6.513" transform="translate(-8 -85) translate(8 85) translate(27 168) translate(0 6)"/>
                        <path fill="#FFDC00" d="M52.648 44.504c.01-.068-.01-.136-.053-.189-.03-.038-2.129-2.55-5.419-4.544-3.438-8.178-8.278-14.133-8.326-14.192-.053-.065-.136-.098-.22-.087-.082.01-.154.063-.19.14l-5.107 11.1c-1.305-.603-1.557-1.17-1.56-1.179-2.671-5.669-3.296-9.79-1.866-12.265.234-.405.527-.768.876-1.09l.008.002c4.606.51 8.884.709 12.759.709 4.135 0 7.807-.228 10.931-.547.274.69 2.248 5.719 4.038 11.872 2.535 8.709 3.552 15.703 2.942 20.227-.864 6.41-4.764 13.71-7.612 19.041-2.463 4.61-3.613 6.857-2.823 7.54.633.55 2.89.985 5.502 1.49 2.682.519 6.734 1.303 6.831 2.084.009.07-.03.332-.901.74-4.231 1.977-16.866 2.364-19.615.088-.399-.33-.542-.689-.438-1.094.252-.977.867-2.22 1.647-3.793 2.112-4.263 5.648-11.398 6.517-23.152.247-3.345-.107-6.831-1.08-10.652l3.055-2.083c.057-.039.094-.099.104-.166" transform="translate(-8 -85) translate(8 85) translate(27 168) translate(0 6)"/>
                        <g transform="translate(-8 -85) translate(8 85) translate(27 168) translate(0 6) translate(0 43.321)">
                            <mask id="vq14ctwfjd" fill="#fff">
                                <use xlink:href="#19bat7rzqc"/>
                            </mask>
                            <path fill="#0064AA" d="M22.242.258c-.34.974-.807 2.87-.1 4.66.545 1.383 1.685 2.416 3.388 3.07.006.002.013.002.02.003.511.705 1.135 1.219 1.862 1.519.133.055.262.104.39.149-.262 1.524-2.094 13.506 3.3 21.551 1.983 2.959 2.468 5.432 1.441 7.353-1.63 3.05-7.19 4.729-15.655 4.729-6.55 0-12.974-.576-15.616-4.752-2.407-3.804-1.405-10.213 3.062-19.593C9.34 8.432 19.655 1.798 22.242.257" mask="url(#vq14ctwfjd)"/>
                        </g>
                        <path fill="#FFD9B0" d="M24.671 44.945c.004-.134-.1-.247-.234-.251-.132.003-.246.1-.25.235-.003.062-.048 1.56.344 3.261.193.84.462 1.58.798 2.21-1.249-.606-2.1-1.465-2.532-2.562-.914-2.322.341-4.955.354-4.982.003-.006.003-.013.005-.02.006-.013.01-.028.012-.043.003-.016.005-.03.004-.046 0-.015-.002-.03-.005-.045-.002-.009 0-.018-.003-.027-5.757-17.682-4.377-25.538-2.206-29.015 1.345-2.154 3.062-2.686 3.966-2.81 4.197-.584 21.104-5.537 21.822-5.748.129-.038.202-.173.165-.301-.038-.13-.173-.204-.301-.165-.073.021-3.133.918-6.98 1.998.53-1.107 2.823-4.847 9.916-5.506C57.81.36 59.676 7.994 59.75 8.32c.002.009.007.015.01.023-.206.473-.404.962-.59 1.472-.513 1.4-1.195 4.033-1.223 4.145-.018.067-.005.139.034.196.034.052.395.577 1.1 1.308-2.486.603-16.366 3.916-23.532 4.52-3.062.258-5.148 1.315-6.2 3.14-1.511 2.623-.894 6.898 1.835 12.706.01.03.303.775 1.964 1.502.016.013.031.028.052.038.026.012.054.017.082.02.522.217 1.17.432 1.975.623-1.654.671-2.297 1.66-2.343 1.735l-.014.026c-.661 1.437-.757 2.774-.286 3.974.796 2.028 2.912 2.916 3.002 2.953.055.023.117.024.173.004 1.357-.486 2.569-.471 3.61.03-.003.013-.01.023-.011.037-.012.1-.332 2.42-3.226 2.421-.066 0-.134 0-.203-.004-6.146-.222-6.079-5.362-6.073-5.58.004-.135-.102-.247-.236-.25-.129-.004-.245.101-.249.236-.001.054-.08 5.227 5.523 5.991-.32.727-.825 1.218-1.505 1.459-1.41.5-3.238-.144-4.376-.848-1.772-1.094-2.105-5.595-2.108-5.64-.01-.134-.128-.234-.26-.226-.133.01-.234.126-.224.259.013.195.354 4.796 2.338 6.021.536.332 1.22.647 1.95.854-.005.232-.063.69-.413.952-.461.345-1.323.271-2.49-.212-3.32-1.377-3.167-7.2-3.165-7.26" transform="translate(-8 -85) translate(8 85) translate(27 168) translate(0 6)"/>
                        <path fill="#0064AA" d="M35.677 46.122c-.384-.177-2.023-1.009-2.659-2.6-.418-1.046-.328-2.226.27-3.505.134-.191 2.133-2.864 8.006-1.83 5.474.965 9.658 5.284 10.546 6.264l-9.002 6.03c-.259-.859-1.103-3.129-3.043-4.176-1.19-.642-2.575-.704-4.118-.183M70.252 14.869c.146-.586.558-.986.92-.893.164.043.29.181.364.374.2-.005.524-.054.751-.293.096-.101.256-.105.356-.007.1.098.103.26.007.36-.324.342-.749.432-1.04.448-.004.112-.02.229-.05.348-.146.586-.558.985-.919.892-.361-.093-.536-.643-.39-1.23M76.212 14.692c.164.043.29.181.364.374.2-.005.524-.054.75-.293.097-.102.257-.105.357-.007.1.097.103.259.007.36-.324.342-.749.431-1.04.448-.004.112-.02.229-.05.348-.146.585-.558.985-.92.892-.36-.093-.535-.644-.388-1.23.147-.585.558-.984.92-.892" transform="translate(-8 -85) translate(8 85) translate(27 168) translate(0 6)"/>
                    </g>
                </g>
                <path fill="#0064AA" d="M142.933 253.866c-.004-.008-.01-.014-.013-.022-.099-.22-.305-.384-.57-.426-.003 0 0 .009-.002.008-.003 0-.002.004-.005.003h-.007c-.292-.046-7.188-1.183-10.161-6.066-.142-.232-.399-.37-.673-.363-.116.003-.227.033-.327.083-.136.068-.25.176-.324.313-.014.025-1.398 2.501-4.56 4.096-.994.501-2.147.724-3.276.948-1.164.231-2.294.435-3.206.895-3.467 1.748-3.79 4.664-3.805 4.78-.027.21.074.493.215.654.14.16.361.293.576.298.068.002 6.885.283 10.293 5.576.152.235.428.377.71.355.282-.024.417-.449.502-.714.536-1.666 1.032-3.082 1.766-3.936 1.435-1.704 3.985-3.387 8.885-4.314 0 0-4.435 1.218-5.56 2.727 1.378-.48 3.307-.712 5.666.302.233.11.507.096.728-.04.22-.132.356-.368.36-.622.003-.1.093-2.525 2.406-3.547.382-.168.555-.61.382-.988M168 129.314c0 2.8-.135 5.044-.4 6.733-.27 1.691-.817 3.276-1.646 4.754-.83 1.48-2.086 2.549-3.771 3.208-1.687.661-3.867.991-6.54.991-1.5 0-2.85-.107-4.055-.318-1.202-.21-2.273-.527-3.208-.95-.937-.422-1.74-.95-2.409-1.584-.669-.634-1.232-1.387-1.684-2.258-.456-.871-.83-1.848-1.124-2.932-.295-1.082-.522-2.27-.682-3.564-.161-1.294-.28-2.706-.361-4.24-.08-1.53-.12-3.167-.12-4.91v-5.625c.053-10.034.426-16.505 1.122-19.41.963-4.17 3.023-6.521 6.18-7.05.589-.106 1.204-.159 1.845-.159h10.914c1.07 0 1.792.212 2.167.634.374.424.562 1.32.562 2.693v2.536c0 1.32-.174 2.231-.522 2.732-.348.503-1.003.754-1.965.754h-5.778c-1.926 0-3.158.316-3.691.95-.804 1.004-1.232 4.437-1.285 10.299V130.423c0 3.38 1.417 5.07 4.254 5.07 1.122 0 2.045-.369 2.768-1.109.721-.74 1.084-1.77 1.084-3.09v-7.764c0-1.372-.322-2.06-.963-2.06h-2.328c-.641 0-1.043-.17-1.204-.514-.16-.343-.241-.991-.241-1.941v-3.644c0-1.215.187-2.06.562-2.535.374-.476 1.177-.713 2.407-.713h7.625c1.015 0 1.685.265 2.006.792.32.528.481 1.426.481 2.693v13.706zM182 141.663c0 1.378-.178 2.278-.533 2.702-.357.424-1.019.635-1.984.635h-3.814c-1.068 0-1.78-.225-2.136-.675-.355-.45-.533-1.391-.533-2.821V95.576c0-1.377.178-2.317.533-2.82.356-.504 1.017-.756 1.984-.756h4.12c.863 0 1.473.266 1.83.795.355.53.533 1.457.533 2.78v46.088zM212 141.424c0 1.378-.187 2.318-.557 2.821-.373.504-1.115.755-2.23.755h-3.664c-.956 0-1.62-.132-1.991-.397-.373-.265-.744-.953-1.115-2.067l-6.69-19.785c-.267-.741-.56-1.112-.877-1.112-.267 0-.398.504-.398 1.51v18.355c0 1.272-.173 2.172-.518 2.702-.345.53-.995.794-1.95.794h-4.143c-1.01 0-1.74-.239-2.19-.715-.453-.477-.677-1.431-.677-2.86V95.496c0-1.377.186-2.305.557-2.781.37-.477 1.115-.716 2.23-.716h3.664c.956 0 1.62.133 1.99.397.372.266.745.954 1.116 2.067l6.69 19.706c.266.742.56 1.112.877 1.112.265 0 .398-.503.398-1.51V95.497c0-1.271.172-2.172.518-2.702.345-.53.995-.795 1.95-.795h4.143c1.008 0 1.738.239 2.19.716.45.476.677 1.43.677 2.86v45.848zM242 129.314c0 2.8-.135 5.044-.4 6.733-.27 1.691-.817 3.276-1.646 4.754-.83 1.48-2.086 2.549-3.771 3.208-1.687.661-3.867.991-6.54.991-1.5 0-2.85-.107-4.054-.318-1.203-.21-2.274-.527-3.21-.95-.936-.422-1.74-.95-2.408-1.584-.669-.634-1.232-1.387-1.684-2.258-.456-.871-.83-1.848-1.124-2.932-.295-1.082-.522-2.27-.682-3.564-.161-1.294-.281-2.706-.361-4.24-.08-1.53-.12-3.167-.12-4.91v-5.625c.052-10.034.426-16.505 1.122-19.41.963-4.17 3.023-6.521 6.18-7.05.589-.106 1.204-.159 1.845-.159h10.915c1.07 0 1.791.212 2.167.634.374.424.56 1.32.56 2.693v2.536c0 1.32-.173 2.231-.52 2.732-.349.503-1.003.754-1.966.754h-5.778c-1.926 0-3.158.316-3.691.95-.804 1.004-1.232 4.437-1.285 10.299V130.423c0 3.38 1.418 5.07 4.254 5.07 1.122 0 2.046-.369 2.767-1.109.722-.74 1.085-1.77 1.085-3.09v-7.764c0-1.372-.322-2.06-.963-2.06h-2.328c-.641 0-1.043-.17-1.204-.514-.16-.343-.241-.991-.241-1.941v-3.644c0-1.215.187-2.06.563-2.535.373-.476 1.176-.713 2.406-.713h7.625c1.016 0 1.685.265 2.007.792.32.528.48 1.426.48 2.693v13.706z" transform="translate(-8 -85) translate(8 85)"/>
                <path fill="#FFDC00" d="M215.746 172c-.145-.051-.636-.132-.726-.28-.158-.244.661-.714 1.138-.72.543 0 .731.184.818.454.15.438-.423.457-1.23.546m.22 2.596c-.113.396-.291.751-.471 1.088-.08.147-.229.21-.342.316-.056-.194-.113-.394-.146-.499-.051-.814.184-1.367.586-1.484.293-.089.488.183.374.579m-2.953-4.38c-.075-.458.163-1.106.543-1.216.107.204.322.463.414.827.115.44-.132 1.064-.408 1.155-.332.109-.473-.295-.55-.766m.503 8.848c-.747.362-1.52.8-2.314.892-1.032.119-2.096-.03-3.137-.141-2.387-.236-3.559-2.912-2.869-5.228.235-.806.648-1.581 1.106-2.276.322-.49.561-.374.843.155.365.681.17 1.361.028 2.049-.03.148.056.322.088.489.167-.103.463-.172.486-.301.165-1.05.724-1.715 1.578-2.116.206-.098.429-.224.636-.21.277.019.663.07.786.273.13.214.108.688-.03.917-.414.692-.928 1.301-1.374 1.97-.087.13-.055.367-.08.556.157-.03.338-.01.466-.089.833-.497 1.667-.99 2.656-.802.256.052.678.305.676.46.001.321-.166.734-.393.938-.269.248-.674.313-1.023.457-.012-.04-.024-.085-.042-.13-.174.058-.376.078-.51.187-.157.131-.26.341-.382.52.166.027.333.06.502.076.713.043 1.426.056 2.13.148.232.034.439.286.657.441-.158.262-.264.657-.484.765m-23.165 2.862c-1.862.472-3.286-1.399-3.35-3.446-.032-.935.857-1.527 1.624-1.046.478.295.833.858 1.259 1.282.144.143.322.243.489.364-.006-.247.031-.51-.029-.74-.065-.271-.214-.514-.324-.77-.068-.147-.203-.303-.187-.43.074-.501.06-1.215.33-1.423.39-.308.903.051 1.144.572.258.564.657 1.082.531 1.818-.016.098.202.256.308.382.087-.1.227-.193.25-.316.092-.48.137-.968.218-1.452.069-.399.112-.828.27-1.179.11-.253.4-.541.61-.542.168.002.463.405.478.645.034.81.061 1.645-.072 2.436-.296 1.717-2.185 3.698-3.549 3.845m3.705-16.309c-.141-.479.007-1.136.185-1.636.242-.693 1.278-.758 1.87-.098.477.537.846 1.204 1.28 1.796.118.158.318.236.481.35.029-.186.118-.384.082-.551-.184-.89-.141-1.76-.004-2.66.073-.473.22-.735.651-.806.483-.076.793.214.932.647.233.735.347 1.505-.017 2.25-.087.18-.234.342-.268.529-.031.198.045.422.073.637.154-.082.346-.118.456-.245.67-.757 1.482-1.158 2.41-1.279.266-.034.544.047.813.07-.052.337-.024.727-.176.989-.99 1.715-2.358 2.835-4.557 3.288-1.724.495-3.496-.84-4.21-3.28m22.403 4.828c-.108-.2-.249-.4-.419-.55-1.23-1.09-2.618-1.578-4.185-.958-1.561.625-3 1.47-3.959 2.972-.2.323-.288.243-.464.022-.582-.752-.808-.784-1.507-.225-1.186.94-1.457 2.34-1.629 3.746-.129 1.048.292 2.003.839 2.868.335.53.23.842-.221 1.239-1.755 1.544-3.528 3.068-5.196 4.715-2.112 2.081-3.69 4.562-4.581 7.488-.108.357-.266.707-.402 1.058.012-.42-.016-.848.04-1.258.322-2.395 1.31-4.572 2.012-6.844 1.42-4.587 2.2-9.261 1.84-14.096-.089-1.228-.04-1.294 1.062-1.762.14-.06.285-.102.42-.166 1.631-.784 2.953-1.912 3.556-3.744.122-.371.038-.846-.06-1.245-.025-.086-.55-.008-.838-.052-.116-.018-.332-.188-.318-.23.554-1.97-.145-3.724-.866-5.453-.605-1.45-2.189-2.275-3.516-1.867-1.204.375-1.991 1.316-2.425 2.476-.419 1.117-.624 2.326-.932 3.49-.063.243-.11.583-.275.686-1.109.69-1.157 1.803-.957 2.887.345 1.87 1.909 3.317 3.758 3.564.612.081.878.36.885.955.016 1.766.114 3.539.006 5.299-.242 4.025-1.27 7.882-2.645 11.633-.717 1.954-1.217 3.953-1.319 6.05-.015.233.018.469.008.702-.004.102-.063.203-.095.304-.05-.104-.11-.205-.134-.32-.053-.226-.087-.463-.125-.697-.48-2.944-.969-5.88-1.432-8.827-.123-.777-.146-1.567-.246-2.343-.066-.529.11-.83.51-1.184 1.59-1.424 2.594-3.605 1.672-6.13-.129-.355-.445-.641-.547-.994-.433-1.522-1.081-2.875-2.156-4.039-.885-.96-1.864-1.28-3.052-1.038-1.197.25-1.878 1.116-2.238 2.268-.518 1.664-.386 3.347.125 4.978.151.491.263.809-.053 1.277-.365.533-.35 1.183-.18 1.823.66 2.494 2.822 3.625 4.736 2.92.553-.207.61.014.684.49.389 2.493.81 4.985 1.22 7.474l-.032.005c.41 2.489.821 4.983 1.237 7.47.045.246.159.478.241.717.175-.245.37-.472.51-.734.071-.12.057-.303.053-.46-.036-3.457.961-6.587 2.921-9.334 2.2-3.083 4.974-5.565 7.882-7.885.153-.118.442-.193.598-.125 1.925.83 3.89.634 5.862.278.983-.177 1.698-.74 2.187-1.66.163-.318.47-.553.728-.814.19-.186.42-.328.603-.52 1.395-1.473 1.783-4.505.81-6.3" transform="translate(-8 -85) translate(8 85)"/>
                <path fill="#0064AA" d="M141.38 211.953c.12-.17.248-.366.393-.549.905-1.144 1.752-2.346 2.733-3.414 2.482-2.702 5.07-5.3 7.53-8.023 1.885-2.086 3.305-4.509 4.192-7.241.042-.13-.025-.3-.041-.451-.093.095-.193.183-.276.286-.951 1.173-1.804 2.455-2.87 3.501-2.208 2.167-4.531 4.208-6.803 6.306-.205.19-.404.402-.56.637-1.149 1.74-2.372 3.437-3.394 5.257-.572 1.02-.806 2.245-1.187 3.38-.029.087-.035.204 0 .281.018.039.154.02.284.03m7.038-1.361c-1.678 1.394-3.785 1.755-5.692 2.589-.923.404-1.769 1.006-2.636 1.543-.686.424-.776.411-.894-.405-.102-.707-.22-1.429-.193-2.137.15-3.853 1.034-7.515 2.748-10.948.32-.64.565-1.328.947-1.924.372-.58.895-1.054 1.316-1.604 2.403-3.147 5.237-5.73 8.556-7.844 3.511-2.235 6.587-5.013 7.634-9.477.034-.146.203-.258.309-.385.117.141.319.272.338.427.058.475.03.96.065 1.44.211 2.893.005 5.761-.458 8.617-.755 4.663-2.32 8.914-5.068 12.782-1.704 2.397-3.842 4.276-5.742 6.428-.33.375-.816.602-1.23.898" transform="translate(-8 -85) translate(8 85)"/>
                <g fill="#FFDC00">
                    <path d="M11.6 37.423c-.365-.14-.565-.28-.632-.232-1.172.835-2.136 1.838-2.439 3.31-.033.16.053.431.175.514.127.085.474.077.539-.017.779-1.138 1.524-2.299 2.357-3.575m40.092-1.777c.171 1.318.275 2.514.507 3.684.082.414.442.8.75 1.127.127.136.455.124.683.098.053-.006.142-.371.088-.528-.495-1.434-1.014-2.861-1.542-4.285-.06-.163-.22-.29-.335-.433l-.151.337M33.309 22.687c-.072-1.08-.06-1.756-.191-2.404-.043-.214-.435-.406-.705-.495-.08-.026-.386.316-.418.516-.169 1.053-.32 2.112-.394 3.175-.025.364.13.787.327 1.104.145.232.484.422.76.458.131.016.42-.353.455-.576.112-.722.14-1.458.166-1.778m8.071 16.66c-.123-.671-.296-1.641-.487-2.608-.023-.114-.149-.208-.226-.311-.069.1-.18.193-.2.301-.288 1.617-.609 3.232-.802 4.86-.034.287.478.638.738.96.29-.298.744-.554.832-.903.16-.63.099-1.315.145-2.299m-39.97 3.24c.85-.52 1.528-.734 1.892-1.196.98-1.245 1.849-2.582 2.712-3.914.234-.36.29-.835.429-1.258-.333.303-.675.595-.996.91-1.089 1.072-2.177 2.146-3.251 3.233-.37.375-.741.763-1.022 1.203-.093.146.098.472.235 1.022M15.076 32.58l.434 1.157c.283-.21.636-.37.83-.643.224-.316.356-.72.443-1.106.467-2.074.911-4.153 1.347-6.233.035-.167-.054-.359-.084-.539-.13.152-.313.283-.38.459-.892 2.349-1.768 4.705-2.59 6.905m1.365-15.335l-.197-.045c0-.466.016-.933-.01-1.399-.008-.162-.12-.319-.184-.479-.102.155-.234.298-.302.467-.488 1.219-1.017 2.426-1.422 3.672-.264.811-.382 1.678-.477 2.53-.03.27.224.57.348.858.318-.152.704-.24.936-.476.21-.214.288-.584.361-.9.328-1.407.634-2.819.947-4.228m5.215 17.567l-.163-.048c0-.2.024-.403-.008-.597-.026-.159-.121-.305-.186-.457-.088.085-.206.155-.26.258-.948 1.81-1.925 3.608-2.805 5.452-.244.51-.325 1.243.466 1.502.707.231 1.194-.21 1.388-.814.564-1.752 1.05-3.529 1.568-5.296m25.667-6.58c-.114-1.19-.216-2.729-.428-4.252-.098-.704-.409-1.379-.623-2.067-.138.64-.274 1.28-.414 1.92-.014.064-.06.121-.075.186-.47 1.842-.464 3.701-.046 5.537.093.407.593.985.947 1.016.798.07.592-.692.635-1.19.023-.267.004-.536.004-1.15M33.47 36.078l-.268-.005c0-1.14.005-2.281-.005-3.421-.002-.196-.072-.391-.111-.586-.119.208-.305.404-.344.626-.4 2.305-.785 4.612-1.15 6.923-.063.394-.148.875.017 1.19.214.41.668.695 1.02 1.034.195-.317.532-.623.56-.955.14-1.598.196-3.203.281-4.806m7.127-7.061c-.263-1.839-.51-3.615-.782-5.386-.025-.168-.208-.312-.318-.467-.084.13-.218.25-.246.39-.349 1.753-.76 3.497-.986 5.265-.104.81.04 1.71.3 2.493.257.773 1.148.755 1.467-.023.296-.72.388-1.524.565-2.272m-13.774-8.12l-.084-.012c0-.402.055-.814-.019-1.2-.05-.267-.28-.499-.43-.745-.26.218-.672.39-.756.662-.449 1.456-.86 2.926-1.19 4.412-.159.708-.173 1.468-.124 2.196.023.326.359.63.552.944.32-.2.734-.33.937-.613.262-.367.433-.84.507-1.291.236-1.446.41-2.902.607-4.354M31.378.812c-3.21.101-7.7.267-12.094 1.228-2.154.471-4.142 1.395-5.573 3.303-1.245 1.66-1.577 3.01-.573 4.77.898 1.572 1.966 3 3.525 4.051 3.981 2.686 8.454 3.928 13.129 4.475 1.9.223 3.859.015 5.788-.064 3.916-.161 7.652-1.235 11.295-2.554 3.034-1.098 4.99-4.196 4.852-7.385-.057-1.342-.415-2.671-1.733-3.433-.984-.568-1.921-1.308-2.983-1.632C42.33 2.143 37.579 1.03 31.378.812m21.367 8.671c.062 3.28.2 6.56.162 9.838-.025 2.206-.446 4.411-.424 6.615.04 3.976 1.037 7.805 2.34 11.535.509 1.456 1.3 2.831 2.978 3.323.126.037.266.1.348.194.296.341.57.702.851 1.055-.356.25-.679.599-1.074.729-1.015.333-2.061.571-3.096.844-3.259.856-5.404-.342-6.463-3.56-.416-1.266-.906-2.508-1.396-3.747-.087-.218-.431-.553-.51-.516-.262.121-.613.36-.653.601-.22 1.32-.39 2.651-.516 3.984-.255 2.705-1.57 4.775-3.478 5.124-1.375.253-2.789.348-4.19.398-2.34.084-4.684.096-7.026.1-1.692.003-2.98-.967-3.269-2.591-.161-.908-.064-1.868-.03-2.804.062-1.744.17-3.486.242-5.23.01-.263-.021-.545-.113-.788-.135-.351-.342-.674-.519-1.009-.199.34-.47.658-.586 1.024-.674 2.155-1.338 4.314-1.954 6.486-.664 2.34-2.128 3.583-4.595 3.735-3.071.19-6.136.489-9.204.74-.938.077-1.742.077-1.67-1.285.03-.552-.393-.794-1.126-.707-1.912.226-3.85.392-5.77.332C.14 43.845-.59 42.326.529 40.833c1.037-1.385 2.28-2.638 3.545-3.827 3.157-2.965 4.774-6.745 5.678-10.839 1.26-5.705 1.492-11.535 1.651-17.353.086-3.131 1.836-5.034 4.343-6.453C18.197.973 20.956.664 23.673.423c3.27-.29 6.571-.509 9.846-.39 4.832.175 9.544 1.287 14.123 2.803 1.35.448 2.577 1.432 3.703 2.36 1.323 1.093 1.262 2.726 1.4 4.287" transform="translate(-8 -85) translate(8 85) translate(173 214)"/>
                    <path d="M30.307 1.913c-1.232 0-2.464.024-3.696-.004-3.367-.075-6.617.507-9.721 1.885-1.212.537-2.363 1.233-2.637 2.713-.294 1.583.42 2.75 1.67 3.609.624.428 1.215.907 1.838 1.335 4.357 2.993 9.396 3.065 14.316 3.646.066.008.135-.021.203-.028 2.445-.234 4.908-.346 7.33-.737 2.27-.367 4.552-.71 6.705-1.73 2.095-.99 2.68-2.73 2.63-4.85-.046-1.948-1.363-2.74-2.942-3.376-5.067-2.038-10.396-2.129-15.696-2.463m-.73-.853c4.151-.224 8.84.178 13.447 1.309 1.569.385 3.073 1.08 4.581 1.7 1.752.722 2.435 2.252 2.393 4.08-.045 1.988-.62 3.8-2.45 4.84-2.25 1.278-4.783 1.616-7.229 2.158-2.257.5-4.59.777-6.896.844-2.163.062-4.344-.207-6.503-.46-2.848-.334-5.659-.891-8.196-2.405-1.299-.776-2.664-1.474-3.835-2.427-2.319-1.886-2.725-4.95.039-6.956.168-.122.322-.29.508-.357 2.694-.965 5.297-2.294 8.229-2.323 1.777-.018 3.554-.003 5.912-.003" transform="translate(-8 -85) translate(8 85) translate(173 214)"/>
                    <path d="M34.551 13.228c.544 0 .738.009.932-.001 2.646-.133 5.33-.114 7.821-1.102 1.18-.468 2.687-1.061 2.666-2.356-.022-1.338-1.447-2.145-2.74-2.543-3.775-1.165-7.69-1.554-11.658-1.474-1.355.027-2.71.081-4.065.146-2.512.118-5.034.254-7.292 1.432-.515.268-1.114.766-1.226 1.248-.168.724.354 1.37 1.116 1.706 1.167.513 2.311 1.108 3.534 1.461 3.66 1.057 7.45 1.352 10.912 1.483m-4.564-8.077c4.504-.422 8.909.058 13.257 1.194 1.539.401 2.603 1.273 3.43 2.469.644.93.281 1.663-.627 2.518-1.826 1.717-4.096 2.195-6.52 2.443-4.82.493-9.61.136-14.336-.685-1.866-.324-3.646-1.199-5.393-1.965-1.523-.668-2.143-1.884-1.61-3.038.253-.547.805-1.105 1.376-1.37 2.535-1.18 5.273-1.585 8.091-1.566.778.005 1.555 0 2.332 0" transform="translate(-8 -85) translate(8 85) translate(173 214)"/>
                    <path d="M35.327 11.386l.038-.31c1.49 0 2.986.072 4.468-.028.878-.06 1.756-.338 2.59-.63.27-.095.498-.53.548-.838.024-.145-.394-.397-.654-.526-.219-.108-.497-.122-.753-.155-1.786-.231-3.566-.552-5.36-.661-2.965-.181-5.938-.245-8.909-.31-.635-.015-1.296.113-1.908.287-.443.127-.825.439-1.234.668.32.255.604.58.97.75.633.291 1.297.601 1.982.7 2.733.394 5.48.709 8.222 1.053M30.439 7c1.782.151 3.719.29 5.65.485 2.057.207 4.107.474 6.164.695.837.09 1.557.364 1.717 1.195.174.901-.435 1.473-1.219 1.874-1.605.823-3.397.703-5.118.741-2.324.052-4.654-.121-6.982-.186-2.228-.062-4.31-.665-6.33-1.487-.727-.296-1.468-.66-1.296-1.576.174-.923.906-1.221 1.834-1.286 1.805-.127 3.606-.292 5.58-.455" transform="translate(-8 -85) translate(8 85) translate(173 214)"/>
                    <path d="M32.54 10c-1.4-.122-2.475-.14-3.512-.343-.388-.076-.688-.58-1.028-.89.387-.239.753-.633 1.163-.684.866-.106 1.763-.11 2.63-.015 1.554.169 3.097.432 4.64.682.202.034.378.221.567.337-.173.14-.332.379-.522.406-1.415.205-2.836.37-3.939.507" transform="translate(-8 -85) translate(8 85) translate(173 214)"/>
                </g>
                <g transform="translate(-8 -85) translate(8 85) translate(305 90)">
                    <mask id="sv338dwkqf" fill="#fff">
                        <use xlink:href="#yqv28zd41e"/>
                    </mask>
                    <path fill="#0064AA" d="M25.5 10.92c.68-1.395.323-2.18-1.207-2.358-1.43-.166-1.572-.478-.734-1.656.126-.178.283-.346.46-.47.977-.68 1.248-1.775 1.592-2.81.313-.942-.244-2.625-.966-3.152-.755-.553-1.849-.501-2.86.238-.518.378-.957.876-1.395 1.354-.96 1.048-1.895 2.12-2.844 3.177-.38.425-.734.419-1.041-.088-.115-.189-.208-.395-.347-.563-.906-1.087-1.736-1.4-2.656.119-1.163 1.92-1.82 3.977-1.975 6.217-.046.658-.066 1.352-.298 1.95-.173.449-.143 1.357-.851 1.21-.644-.133-.557-.93-.602-1.531-.048-.64-.138-1.292-.33-1.9-.153-.487-.558-.91-1.122-.71-.422.15-1.003.443-1.112.799-.516 1.682-.932 3.4-1.31 5.12-.304 1.392-.489 2.81-.758 4.209-.078.405-.111.857-.768.85-.622-.004-.675-.45-.858-.826-.19-.393-.298-.847-.556-1.184-.88-1.15-2.014-1.018-2.547.323-.214.538-.282 1.172-.27 1.76.035 1.854 1.025 3.332 1.943 4.841.815 1.342.48 2.12-1.042 2.224-.744.051-.96.36-1.01.979-.109 1.305.215 2.495.919 3.595.632.99 1.105 1.99 1.362 3.193.26-.028.519-.058.778-.085-.08-.617.222-1.05.785-1.292 2.299-.99 4.601-1.95 7.21-1.348 1.273.295 2.565.425 3.88.042 1.266-.37 1.76-1.398 2.184-2.46.413-1.032.113-1.887-.817-2.591-.81-.612-.812-1.197-.134-1.918 1.323-1.404 2.855-2.504 4.566-3.406.932-.492 1.727-1.286 2.506-2.028.263-.25.406-.765.395-1.152-.04-1.472-.329-1.708-1.952-2.076-.553-.126-1.072-.41-1.606-.621.412-.478.741-1.097 1.252-1.41 1.832-1.12 3.19-2.62 4.137-4.564" mask="url(#sv338dwkqf)"/>
                </g>
                <path fill="#0064AA" d="M25 187c-.038-.092-.095-.18-.113-.277-.35-1.892-1.454-3.44-2.362-5.054-1.944-3.46-4.016-6.846-6.035-10.263-.046-.077-.063-.18-.124-.236-.08-.075-.19-.115-.288-.17-.025.134-.112.3-.064.398.91 1.886 1.811 3.778 2.765 5.64 1.324 2.585 2.65 5.17 4.063 7.703.462.827 1.204 1.492 1.818 2.231l.109-.088L25 187m-12.134-4.543c-.65-.378-1.323-.723-1.946-1.143-.999-.673-1.898-1.452-2.273-2.696-.338-1.12.138-1.74 1.293-1.595.512.064 1.004.286 1.515.362.208.03.552-.072.637-.228.099-.181.068-.556-.059-.725-.263-.351-.613-.639-.95-.923-1.281-1.08-2.64-2.074-3.83-3.25-.603-.597-.995-1.475-1.323-2.295-.314-.787-.073-1.625.397-2.301.4-.574 1.019-.364 1.58-.237.096.022.208-.03.312-.05-.029-.128-.017-.296-.093-.38-.678-.75-1.401-1.459-2.051-2.233-.705-.84-1.39-1.707-1.985-2.63-.161-.25-.094-.883.109-1.09.205-.208.719-.175 1.079-.12.427.067.826.316 1.253.4.308.06.643-.021.965-.04-.047-.337-.013-.717-.157-1.002-.32-.636-.778-1.2-1.094-1.838-.608-1.23-.94-2.535-.653-3.924.266-1.282 1.007-1.795 2.188-1.376.628.223 1.26.655 1.697 1.167.535.629.88 1.433 1.28 2.176.318.589.58 1.21.91 1.79.048.084.41.103.495.015.18-.182.266-.461.406-.69.552-.909.949-1.008 1.824-.427.94.622 1.452 1.574 1.613 2.661.197 1.325.213 2.677.372 4.01.054.453.185 1.094.49 1.274.593.352.733-.393 1.013-.75.8-1.018 1.827-1.045 2.656-.033.718.874 1.001 1.897.754 3.026-.134.614-.417 1.197-.514 1.813-.095.602-.038 1.229-.048 1.844.391-.42.784-.839 1.173-1.263.058-.064.09-.154.14-.228.716-1.051 1.873-.975 2.537.134.607 1.013.377 1.975-.046 2.964-.314.734-.607 1.482-.841 2.246-.076.248.064.565.106.85.284-.049.57-.09.85-.151.08-.018.154-.087.223-.142.688-.55 1.307-.327 1.897.18.995.857 1.361 1.995 1.194 3.266-.115.878-.41 1.734-.659 2.588-.475 1.636-1.057 3.244-1.428 4.903-.166.744-.417 1.649.269 2.363.04.043.023.228.007.232-.104.025-.261.067-.317.012-.35-.338-.664-.716-1.015-1.052-.24-.23-.498-.468-.79-.607-1.971-.941-4.127-1.365-6.069-2.439-1.639-.906-3.436-1.507-5.164-2.243l.07-.175M262.69 28.533c-.037-.037-.055-.1-.093-.147-2.14-2.354-1.25-5.094-.695-7.604.5-2.253 1.66-4.352 2.53-6.514.018-.055.074-.1.102-.147.343-.732.954-1.548 1.686-1.227.676.311 1.056 1.273 1.492 1.85-.529 2.328-.927 4.407-1.492 6.441-.676 2.41-1.482 4.783-2.27 7.165-.093.284-.398.531-.667.696-.074.046-.39-.33-.593-.513m8.413-14.274c1.158-.962 2.214-.587 2.53.898.073.348.064.705.073.87-.01 1.897-.732 3.417-1.64 4.764-1.306 1.942-2.872 3.72-4.354 5.552-.25.312-.584.596-.936.788-.38.202-.834.284-1.25.422.082-.385.12-.788.24-1.164.815-2.675 1.64-5.35 2.483-8.016.519-1.659 1.52-3.006 2.854-4.114m-10.507 8.273c-.305 1.96-.611 3.912-.926 5.873-.019.11-.074.21-.112.32-.092-.073-.213-.118-.259-.201-.435-.705-.973-1.374-1.27-2.135-1.056-2.666-2.417-5.24-2.908-8.099-.158-.916-.186-1.878-.14-2.813.038-.97.88-1.557 1.835-1.41.954.146 1.751.604 2.103 1.465.917 2.227 1.918 4.462 1.677 7m-4.382 7.348c-.908-.825-1.927-1.585-2.66-2.547-1.139-1.494-2.102-3.124-3.075-4.727-.324-.541-.436-1.2-.5-1.403-.121-1.264.361-1.52 1.056-1.328 1.593.421 2.946 1.237 3.78 2.694 1.084 1.878 2.112 3.793 3.16 5.698.11.202.166.458.314.623.361.431.76.816 1.149 1.219-.232.22-2.89.073-3.224-.229m-1.418 1.09c-.315.11-.518.962-.713.944-1.223-.12-2.474-.275-3.641-.642-1.316-.403-2.39-1.3-3.178-2.418-.278-.385-.547-1.063-.38-1.384.213-.412.862-.604 1.325-.888 2.353.036 4.15.879 5.615 2.537.305.349.704.614 1.056.926.389.339.797.613-.084.925m27.072 50.418c-1.556-.971-3.122-1.933-4.753-2.785-1.63-.852-3.363-1.558-5.262-1.347-.787.082-.787-.275-.741-.78.102-1.163.287-2.317.333-3.48.038-.788.204-.679.779-.358 2.492 1.375 5.086 2.574 7.903 3.124 1.028.202 2.14.055 3.205-.009.232-.01.566-.293.63-.513.047-.193-.175-.54-.37-.687-2.122-1.53-4.253-3.078-6.949-3.445-1.529-.21-3.067-.385-4.604-.449-.63-.027-.77-.037-.733-.751.065-1.457-.092-2.923-.138-4.389-.01-.274.055-.559.083-.842.204.128.39.283.602.366 2.715 1.072 5.448 2.034 8.45 1.548 1.167-.183 2.335-.394 3.492-.669.427-.1.807-.421 1.205-.64-.333-.257-.649-.542-1.01-.752-.408-.238-.89-.367-1.27-.632-1.36-.972-2.9-1.338-4.53-1.402-1.667-.064-3.335-.147-5.003-.156-.389-.009-.815.174-1.176.357-1.121.578-1.112.596-1.251-.677-.028-.294-.046-.587-.102-.88-.278-1.512-.25-1.503 1.353-1.576 2.075-.091 4.16-.174 6.226-.412 1.047-.12 2.093-.467 3.048-.916.648-.312 1.177-.944 1.677-1.503.296-.33.334-.833-.232-.962-1.204-.284-2.483-.806-3.66-.65-3.057.412-6.114 1.026-8.384 3.435-.352.376-.547.293-.658-.229-.324-1.429-.686-2.84-1.01-4.27-.13-.558.083-.778.714-.906 1.148-.248 2.279-.641 3.363-1.1.982-.412 1.936-.906 2.816-1.502 1.121-.76 2.178-1.631 3.224-2.51.213-.184.213-.605.315-.917-.324-.091-.639-.265-.963-.265-.343-.01-.695.128-1.038.22-1.14.302-2.335.494-3.419.962-1.825.787-3.789 1.447-4.882 3.325-.102.174-.287.294-.427.431-.12-.202-.277-.385-.352-.605-.38-1.163-.731-2.345-1.111-3.509-.399-1.209-.278-1.356.843-2.125 1.658-1.137 3.382-2.236 4.818-3.61 1.158-1.127 1.964-2.611 2.872-3.985.176-.275.065-.733.083-1.1-.361.055-.75.046-1.075.192-.528.248-.991.651-1.52.898-2.853 1.283-5.086 3.189-6.392 6.066-.083.183-.213.348-.324.522-.149-.174-.352-.32-.435-.513-.88-2.098-1.715-4.224-2.65-6.304-.278-.604-.306-1.053.009-1.63 1.028-1.906 2.13-3.784 2.974-5.772.824-1.952 2.103-3.473 3.474-5.04 2.15-2.446 3.947-5.14 4.651-8.42.269-1.273-.028-2.326-.797-3.298-.787-.989-1.723-1.117-2.788-.33-.658.486-1.195 1.128-1.789 1.696-.287.274-.565.559-.843.833l-.083-1.035c-.01-.055 0-.119 0-.174-.074-1.109-1-2.345-1.872-2.501-1.111-.202-1.825.174-2.5 1.511-.76 1.521-1.418 3.088-2.123 4.636-.166.367-.314.743-.472 1.109-.102-.339-.176-.696-.315-1.035-.463-1.136-.89-2.3-1.455-3.39-.593-1.136-1.668-1.668-2.918-1.777-1.343-.12-2.474.778-2.631 2.097-.065.514 0 1.063.11 1.576.251 1.2.566 2.392.844 3.592.037.156-.019.339-.028.504-.176-.073-.37-.138-.537-.238-.908-.55-1.78-1.173-2.733-1.64-.714-.349-1.585-.358-2.169.256-.546.568-.75 1.31-.324 2.116.732 1.393 1.427 2.813 2.131 4.215.102.202.223.403.334.604-.278 0-.584.092-.816 0-1.093-.457-2.223-.348-3.344-.238-.89.083-1.4.623-1.455 1.503-.055.77.046 1.493.62 2.135 1.557 1.777 3.53 2.711 5.847 3.041 1.27.175 2.455.45 3.678 1.027 1.4.668 2.567 1.685 4.058 2.235 1.316.495 2.437 1.356 3.132 2.83 1.723 3.63 2.631 7.504 3.826 11.28.704 2.225 1.029 4.571 1.64 6.825 1.168 4.288 1.844 8.621 1.751 13.083-.167 2.822-.231 5.653-.537 8.465-.204 1.787-.528 3.583-1.4 5.25-.935 1.769-1.732 3.6-2.547 5.424-.12.265 0 .632.01.953.259-.183.61-.312.75-.559.667-1.246 1.315-2.501 1.88-3.793.594-1.338 1.122-2.712 1.585-4.096.25-.769.324-1.594.445-2.4.102-.641.277-.467.574-.1 2.168 2.711 5.18 4.049 8.44 4.947.964.275 1.965.467 2.965.568.399.036 1.038-.174 1.196-.468.157-.283-.028-.934-.288-1.236-.5-.568-1.121-1.072-1.77-1.475" transform="translate(-8 -85) translate(8 85)"/>
                <path fill="#FFDC00" d="M311.39 89.634c-.106.188-.264.346-.401.508l.118.119c-1.11 1.106-2.133 2.305-3.34 3.295-2.877 2.355-5.755 4.722-9.18 6.261-.194.085-.396.158-.588.232.005-.191 0-.396.028-.585.276-2.054.909-3.842 2.904-4.956 3.003-1.668 5.925-3.485 8.88-5.217.31-.182.682-.252 1.041-.313.232-.034.491.049.736.073-.062.195-.094.417-.197.583m-13.167 1.548c-.846-1.73-1.714-3.465-2.474-5.24-.967-2.224-1.847-4.493-2.74-6.763-.24-.6-.398-1.224-.555-1.858-.053-.257 0-.544-.004-.827.262.06.514.12.547.125 2.342 1.631 3.85 3.708 5.257 5.86 2.548 3.881 2.535 3.89 1.162 8.435-.112.38-.365.717-.541 1.076-.221-.27-.504-.503-.652-.808m-.12 3.628c-.27-.095-.54-.18-.794-.296-.202-.086-.375-.225-.833-.495-1.135-1.298-3.376-1.918-3.98-4.225-.144-.565-.893-.935-1.197-1.488-.547-.986-1.087-2.016-1.393-3.102-.203-.709.008-1.538.03-2.316.629.193 1.255.397 1.886.569.478.137 1.017.17 1.447.403.398.216.821.572 1.012.974 1.326 2.706 2.581 5.436 3.86 8.159.12.255.282.55.267.809-.015.338-.189.674-.305 1.008m-.55 2.31c-.414 1.128-.656 2.327-.983 3.491-.05.185-.164.35-.258.529-.112-.164-.25-.297-.34-.469-1.654-3.015-3.577-5.82-6.07-8.198-.21-.2-.4-.443-.486-.705-.116-.368-.114-.775-.16-1.155.37.02.751.041 1.13.085.088.013.172.059.202.086 2.309 1.785 4.442 3.454 6.602 5.094.458.35.587.629.362 1.241m-1.878-29.577c.053-.366.34-.708.528-1.066.21.268.432.527.631.794.926 1.256 1.976 2.439 2.73 3.794 1.052 1.863 1.893 3.865 2.81 5.81.086.182.049.437.009.635-.419 2.102-.848 4.202-1.311 6.456-.262.007-.604.104-.657.006-1.6-2.542-3.476-4.967-4.652-7.697-1.194-2.756-.536-5.807-.088-8.732m6.255-6.143c.257.253.488.535.775.735.678.473 1.007.464 1.298-.524.312-1.053 1.048-1.999 1.62-2.98.093-.167.291-.286.448-.433 0 .238.042.494-.003.724-.345 1.672-.744 3.334-1.067 5.009-.626 3.294-1.209 6.606-1.835 9.9-.057.32-.226.624-.352.945-.242-.284-.569-.524-.725-.852-.639-1.282-1.255-2.572-1.832-3.89-.186-.435-.35-.946-.295-1.402.251-2.273.56-4.55.877-6.813.107-.732.43-1.093 1.09-.42m3.189 7.802c.063-.126.17-.235.48-.654 1.105-1.617 2.805-3.114 4.818-4.281.246-.134.547-.18.82-.266.03.265.145.554.097.807-.41 1.888-.8 3.79-1.307 5.652-.14.49-.635.938-1.049 1.297-1.42 1.209-2.876 2.355-4.306 3.551-.271.232-.758.547-.674-.03.308-2.039.098-4.175 1.12-6.076m1.791-10.065c.037-.176.24-.328.377-.49.066.09.21.19.21.27-.14 2.21-.29 4.407-.451 6.603-.008.134-.138.251-.288.501-.271.233-.647.563-1.03.87-.106.097-.228.159-.353.242-.01-.16-.075-.34-.042-.492.512-2.508 1.033-5.002 1.577-7.504m5.03 13.425c.239-.09.538-.047.802-.076-.02.212-.018.439-.08.634-.254.653-.477 1.334-.805 1.954-.468.884-1.03 1.719-1.55 2.571l.062.044c-.595.977-1.17 1.97-1.797 2.942-.221.353-.49.722-.83.966-1.712 1.269-3.453 2.51-5.205 3.738-.15.102-.388.102-.586.141-.012-.228-.077-.476-.033-.707.408-2.024.802-4.038 1.265-6.054.091-.395.342-.8.634-1.097 1.134-1.182 2.288-2.35 3.5-3.454.665-.605 1.225-1.497 2.505-.812.441.234 1.388-.523 2.117-.79m-.662 7.829c.2-.13.535-.024.807-.03-.062.195-.104.404-.186.585-1.012 1.98-2.035 3.96-3.06 5.952-.923 1.994-2.484 3.239-4.452 4.164-1.285.594-2.408 1.551-3.618 2.326-.349.221-.752.344-1.127.516.105-.336.223-.681.328-1.017.042-.13.02-.291.05-.423.467-1.653.507-3.64 1.487-4.856 1.405-1.732 3.47-2.937 5.316-4.276 1.432-1.06 2.948-1.994 4.455-2.941m2.018 7.054c-.46-.034-.921-.123-1.368-.086-.263.018-.504.277-.775.351-.599.15-1.211.242-1.818.37.223-.523.422-1.037.675-1.533 1.1-2.116 2.217-4.206 3.284-6.327.175-.348.326-.926.166-1.142-.182-.23-.755-.257-1.144-.223-.61.07-1.214.253-1.822.391.288-.58.554-1.165.842-1.745.192-.391.415-.755.617-1.133l.256.105c.583-1.364 1.277-2.713 1.73-4.119.289-.898-.44-1.49-1.352-1.284-.28.062-.566.156-.811.29-.875.495-1.025.123-.843-.666.423-1.818.921-3.614 1.243-5.435.19-1.071.932-2.446-.166-3.218-.893-.628-2.068.062-3.01.627-.507.3-.656.312-.644-.4.009-2.003-.06-4.017-.142-6.022-.007-.42-.152-.826-.227-1.244-.407.235-.886.414-1.225.727-.459.432-.872.937-1.233 1.474-.637.96-1.235 1.96-1.809 2.952-.348.606-.69.85-1.338.338-.418-.322-1.094-.805-1.408-.67-.436.198-.75.876-.906 1.409-.276.888-.423 1.817-.556 2.738-.176 1.208-.274 2.428-.426 3.63-.027.188-.22.34-.335.516-.128-.131-.307-.225-.398-.374-.531-.86-1.014-1.745-1.56-2.583-.654-1.023-.847-1.017-1.319.046-1.184 2.704-1.163 5.594-1.264 8.467-.03.675-.006 1.369-.003 2.049-.598-.325-1.185-.649-1.78-.984-.064-.032-.113-.085-.16-.148-.445-.518-.804-.23-.936.215-.146.533-.258 1.151-.128 1.657.339 1.25.855 2.445 1.241 3.68.21.664.3 1.368.437 2.056-.717-.127-1.482-.16-2.158-.405-1.451-.528-2.033-.262-1.95 1.267.116 2.01.39 4.02 1.682 5.714.151.203.24.454.364.687-.28-.018-.567.009-.831-.042-1.474-.293-2.199.258-1.93 1.678.12.652.548 1.292.966 1.84.865 1.133 1.893 2.154 2.718 3.327 1.36 1.931 2.618 3.937 3.902 5.924.705 1.066.887 1.058 1.676.142.503-.583 1.012-1.279 1.671-1.613 4.123-2.06 7.78-4.8 11.1-7.952 1.18-1.119 2.07-2.575 3.002-3.922.232-.351.146-.93.203-1.397M27.825 139.4c.05.206.042.425.053.63l.164.007c-.054 1.53.017 3.068-.182 4.58-.478 3.601-.95 7.21-2.364 10.597-.08.19-.177.377-.264.558-.124-.14-.263-.283-.37-.436-1.174-1.648-1.915-3.345-1.237-5.471 1.026-3.196 1.896-6.444 2.846-9.653.1-.336.318-.635.534-.919.141-.179.382-.293.573-.44.085.18.21.36.247.548m-8.347 9.902c-1.758-.667-3.533-1.323-5.259-2.08-2.172-.939-4.313-1.966-6.463-2.987-.572-.268-1.1-.606-1.636-.953-.209-.148-.362-.387-.554-.587.228-.132.446-.258.473-.277 2.758-.402 5.217.07 7.655.663 4.404 1.062 4.401 1.078 6.454 5.233.174.346.219.755.333 1.129-.338-.045-.695-.023-1.003-.14m2.335 2.665c-.256.111-.505.232-.764.32-.202.073-.417.09-.924.203-1.674-.166-3.684.89-5.653-.35-.48-.307-1.26-.069-1.846-.26-1.047-.337-2.12-.71-3.062-1.279-.617-.37-1.02-1.102-1.523-1.672.576-.281 1.159-.555 1.723-.854.432-.222.837-.558 1.299-.68.428-.112.968-.14 1.37.018 2.751 1.042 5.467 2.149 8.194 3.234.257.1.568.204.73.397.214.251.316.607.456.923m1.148 2.013c.458 1.08 1.086 2.096 1.629 3.145.088.165.116.358.169.548-.19-.041-.377-.044-.554-.106-3.19-1.043-6.432-1.756-9.795-1.784-.282-.003-.58-.049-.816-.178-.329-.184-.598-.476-.885-.716.277-.233.563-.473.862-.695.071-.05.162-.073.201-.074 2.836-.27 5.47-.507 8.102-.782.56-.057.838.055 1.087.642M1.89 134.164c-.206-.296-.23-.733-.335-1.113.329.05.66.086.98.144 1.497.275 3.035.417 4.475.879 1.993.624 3.927 1.488 5.878 2.261.183.073.327.28.43.447 1.104 1.777 2.2 3.56 3.373 5.476-.182.18-.36.478-.464.444-2.836-.743-5.79-1.217-8.449-2.376-2.689-1.165-4.256-3.78-5.888-6.162m.358-8.558c.352.008.705.055 1.044.006.798-.117 1.027-.343.575-1.241-.48-.959-.587-2.125-.833-3.207-.047-.18.016-.398.03-.607.158.17.358.323.48.518.87 1.421 1.694 2.873 2.58 4.281 1.753 2.766 3.547 5.515 5.298 8.281.173.266.255.596.38.91-.362-.042-.755.005-1.085-.125-1.31-.486-2.61-.993-3.901-1.546-.422-.186-.88-.44-1.145-.802-1.337-1.788-2.636-3.616-3.92-5.44-.412-.593-.422-1.067.497-1.028m7.476 3.428c-.04-.133-.036-.282-.095-.787-.29-1.892-.078-4.093.578-6.271.085-.26.269-.494.406-.737.197.169.473.297.608.51.967 1.619 1.958 3.235 2.839 4.901.227.442.174 1.092.118 1.625-.205 1.81-.478 3.6-.699 5.408-.038.347-.176.896-.5.429-1.141-1.658-2.716-3.04-3.255-5.078m-5.439-8.369c-.091-.15-.048-.393-.058-.6.107.02.276-.005.329.051 1.374 1.669 2.733 3.334 4.084 5.006.084.102.069.272.13.55-.039.347-.087.834-.156 1.309-.01.14-.055.265-.088.408-.115-.107-.28-.191-.359-.323-1.308-2.129-2.6-4.254-3.882-6.4m12.539 6.203c.11-.223.353-.392.521-.59.128.164.28.325.365.505.256.636.55 1.27.732 1.93.255.943.412 1.914.61 2.869l.073-.01c.228 1.093.481 2.184.683 3.297.078.399.132.841.053 1.244-.374 2.047-.786 4.095-1.215 6.14-.038.174-.208.332-.323.492-.16-.154-.373-.286-.495-.481-1.06-1.714-2.123-3.413-3.138-5.159-.198-.342-.29-.799-.28-1.206.019-1.6.062-3.203.19-4.8.07-.875-.127-1.885 1.242-2.253.47-.128.64-1.3.982-1.978m4.75 6.022c.057-.226.366-.375.556-.56.086.18.195.356.257.54.6 2.088 1.192 4.183 1.79 6.286.673 2.038.391 3.968-.393 5.942-.52 1.283-.681 2.716-1.026 4.076-.101.39-.306.747-.46 1.12-.148-.309-.294-.634-.443-.943-.057-.12-.18-.222-.247-.335-.77-1.49-2.067-2.932-2.18-4.454-.154-2.173.513-4.411.935-6.6.313-1.712.77-3.39 1.212-5.072m6.143 3.677c-.35.283-.738.528-1.032.853-.175.189-.174.535-.318.768-.326.508-.701.983-1.049 1.478-.19-.52-.39-1.02-.541-1.542-.628-2.242-1.226-4.48-1.881-6.703-.108-.365-.385-.878-.644-.925-.283-.042-.709.322-.964.606-.388.457-.695.991-1.036 1.496-.183-.606-.383-1.2-.565-1.806-.124-.407-.208-.815-.316-1.22l.252-.096c-.495-1.362-.9-2.786-1.515-4.09-.393-.833-1.307-.77-1.82-.012-.158.23-.299.489-.384.748-.293.938-.648.773-1.045.089-.912-1.578-1.754-3.19-2.74-4.703-.58-.89-.968-2.366-2.265-2.182-1.055.15-1.432 1.426-1.726 2.458-.162.553-.26.661-.725.145-1.33-1.432-2.724-2.821-4.12-4.195-.284-.294-.658-.487-.99-.735-.134.44-.356.888-.389 1.338-.039.613.005 1.25.105 1.873.187 1.11.428 2.222.681 3.313.156.664.076 1.067-.729 1.135-.511.05-1.316.157-1.449.464-.18.431.05 1.125.294 1.608.396.818.912 1.578 1.43 2.323.682.979 1.425 1.913 2.118 2.87.106.153.072.391.106.594-.179-.01-.368.043-.534-.002-.95-.256-1.885-.565-2.833-.798-1.149-.291-1.282-.158-.909.915.96 2.718 2.903 4.763 4.747 6.877.43.501.909.98 1.365 1.463-.643.167-1.276.33-1.925.488-.066.02-.136.015-.212.002-.663-.072-.726.373-.524.778.252.477.585.993 1.014 1.266 1.075.664 2.241 1.171 3.34 1.792.592.334 1.125.776 1.682 1.174-.595.388-1.161.876-1.808 1.154-1.385.593-1.622 1.171-.543 2.206 1.423 1.354 2.959 2.604 5.01 2.947.243.044.473.163.717.246-.211.175-.398.385-.62.526-1.245.775-1.394 1.653-.255 2.485.52.384 1.252.554 1.915.665 1.372.23 2.786.27 4.157.555 2.256.467 4.491 1.055 6.731 1.613 1.213.287 1.338.16 1.29-1.02-.031-.751-.133-1.587.113-2.266 1.563-4.224 2.34-8.62 2.603-13.084.096-1.586-.241-3.218-.477-4.801-.069-.405-.516-.76-.787-1.131" transform="translate(-8 -85) translate(8 85)"/>
                <path fill="#0064AA" d="M227.729 195.012l.14-.019c-.116-.868-.226-1.736-.354-2.602-.02-.13-.126-.247-.192-.37-.034.125-.104.252-.097.374.082 1.448.175 2.896.266 4.344.01.176-.01.368.057.522.06.136.22.23.336.342.036-.12.113-.245.101-.36-.075-.745-.17-1.488-.257-2.231m6.567 8.987c-1.407-.145-12.792-.111-12.921-.23-1.795-3.457-4.858-10.863-5.33-12.728-.11-.436.012-.93.027-1.396.394.258.907.433 1.163.788 1.445 2.005 2.831 4.052 4.231 6.088.175.254.296.544.481.79.081.108.26.146.393.216.02-.128.086-.269.054-.383-.289-1.053-.58-2.106-.899-3.151-1.15-3.766-1.845-7.6-1.79-11.545.003-.207.076-.412.117-.617.2.135.49.226.586.413.342.661.617 1.355.918 2.036 1.137 2.565 2.298 5.12 3.403 7.698.688 1.606 1.29 3.248 1.936 4.871.054.135.15.252.228.378.027-.127.093-.26.075-.38-.07-.478-.17-.951-.256-1.427-.705-3.885-.586-7.807-.517-11.725.032-1.804.126-3.609.247-5.41.03-.436.281-.857.431-1.285.206.398.474.778.605 1.199.427 1.37.826 2.749 1.192 4.135.647 2.449 1.366 4.886 1.853 7.366.324 1.649.315 3.363.42 5.05.052.835.021 1.674.037 2.511.003.128.052.255.08.382.091-.127.21-.242.27-.381.352-.803.628-1.643 1.043-2.41 1.491-2.751 2.948-5.525 4.574-8.198 1.143-1.881 2.536-3.616 3.833-5.405.068-.093.295-.131.426-.101.083.018.198.23.172.324-.199.734-.387 1.474-.657 2.184-.372.98-.805 1.937-1.224 2.898-.59 1.353-1.286 2.67-1.768 4.058-.879 2.537-2.078 4.969-2.604 7.622-.024.121-.012.249-.017.374.15-.041.308-.063.446-.127.117-.055.221-.148.312-.242 2.6-2.702 5.988-4.252 9.186-6.076.255-.146.839-.238.876-.164.25.5-.202.628-.55.806-1.934.987-3.224 2.635-4.412 4.34-1.155 1.659-2.227 3.381-3.224 5.137-.962 1.693-.9 1.728-3.446 1.717" transform="translate(-8 -85) translate(8 85)"/>
                <g fill="#FFDC00">
                    <path d="M6.043 6.943C4.174 6.9 2.306 6.867.438 6.798.28 6.792-.012 6.526 0 6.415c.056-.465.11-.984.337-1.362C1.258 3.519 2.226 2.017 3.211.53c.53-.8.857-.686 1.278.282.74 1.701 1.512 3.387 2.288 5.07.435.943.256 1.26-.734 1.061M19.043 6.943c-1.869-.043-3.737-.076-5.605-.145-.158-.006-.45-.272-.438-.383.056-.465.11-.984.337-1.362.92-1.534 1.889-3.036 2.874-4.523.53-.8.857-.686 1.278.282.74 1.701 1.512 3.387 2.288 5.07.435.943.256 1.26-.734 1.061M32.043 6.943c-1.869-.043-3.737-.076-5.605-.145-.158-.006-.45-.272-.438-.383.056-.465.11-.984.337-1.362.92-1.534 1.889-3.036 2.874-4.523.53-.8.857-.686 1.278.282.74 1.701 1.512 3.387 2.288 5.07.435.943.256 1.26-.734 1.061M44.043 6.943c-1.869-.043-3.737-.076-5.605-.145-.158-.006-.45-.272-.438-.383.056-.465.11-.984.337-1.362.921-1.534 1.889-3.036 2.874-4.523.53-.8.857-.686 1.278.282.74 1.701 1.512 3.387 2.288 5.07.435.943.256 1.26-.734 1.061M57.043 6.943c-1.869-.043-3.737-.076-5.605-.145-.158-.006-.45-.272-.438-.383.057-.465.11-.984.337-1.362.921-1.534 1.889-3.036 2.874-4.523.53-.8.857-.686 1.278.282.74 1.701 1.512 3.387 2.288 5.07.435.943.256 1.26-.734 1.061M69.043 6.943c-1.869-.043-3.738-.076-5.605-.145-.158-.006-.45-.272-.438-.383.056-.465.11-.984.337-1.362.92-1.534 1.889-3.036 2.874-4.523.53-.8.857-.686 1.278.282.74 1.701 1.512 3.387 2.288 5.07.435.943.256 1.26-.734 1.061M82.043 6.943c-1.869-.043-3.737-.076-5.605-.145-.158-.006-.45-.272-.438-.383.056-.465.11-.984.337-1.362.921-1.534 1.889-3.036 2.874-4.523.53-.8.857-.686 1.278.282.74 1.701 1.512 3.387 2.288 5.07.435.943.256 1.26-.734 1.061M95.043 6.943c-1.869-.043-3.737-.076-5.605-.145-.158-.006-.45-.272-.438-.383.056-.465.11-.984.337-1.362.92-1.534 1.889-3.036 2.874-4.523.53-.8.857-.686 1.278.282.74 1.701 1.512 3.387 2.288 5.07.435.943.256 1.26-.734 1.061" transform="translate(-8 -85) translate(8 85) translate(65 154)"/>
                </g>
                <path fill="#FFDC00" d="M224.77 4.886c-1.022 1.76-2.16 3.395-3.82 4.605-1.282.942-2.772 1.387-4.308 1.583-1.58.202-3.182.255-4.77.373-.006-.08-.02-.164-.026-.249-2.446.235-4.906.373-7.333.74-1.191.176-2.356.692-3.462 1.209-1.503.7-2.655 1.766-2.83 3.584-.02.223-.235.432-.365.648-.11-.249-.326-.497-.313-.74.027-.908.098-1.811.215-2.714.163-1.281.846-2.328 1.835-3.06.794-.59 1.035-1.322 1.152-2.198.026-.177 0-.386.078-.537.143-.268.338-.503.514-.758.234.183.534.32.684.556.26.412.37.935.656 1.334.443.621 1.029.556 1.36-.144.26-.523.404-1.105.6-1.668.123-.333.22-.686.383-1 .072-.138.286-.203.43-.301.11.176.292.34.312.523.046.503-.013 1.014.033 1.518.032.353.097.739.273 1.033.351.602.943.615 1.288.006.267-.464.378-1.014.56-1.53.26-.726.514-1.459.774-2.185.163-.451.501-.726.944-.51.176.085.254.504.267.778.039.641-.02 1.282.006 1.923.033.615.39 1.047.957 1.217.56.164.943-.183 1.236-.635.43-.647.78-1.295.827-2.132.032-.654.273-1.347.611-1.91.39-.653 1.028-.562 1.308.151.157.392.189.87.163 1.301-.033.445-.312.897-.273 1.328.032.4.247.903.553 1.112.234.157.813.046 1.1-.157 1.177-.81 1.49-2.087 1.737-3.42.11-.59.527-1.12.826-1.655.046-.072.274-.105.371-.06.078.034.11.23.098.348-.085.863-.267 1.72-.26 2.577.006.437.22 1.033.552 1.275.436.327 1.12.242 1.478-.249.67-.909 1.288-1.864 1.848-2.851.28-.504.364-1.119.585-1.662.176-.412.404-.817.664-1.184.117-.17.371-.346.553-.333.13.007.313.32.339.517.156 1.23.26 2.44-.41 3.603m-29.4 19.55c-1.275 0-2.31-.87-2.31-1.936 0-1.066.664.798 2.31.752 1.77-.052 2.304-1.818 2.304-.752s-1.035 1.936-2.304 1.936m-2.727 28.627c-.038.072-.136.105-.234.177-.02-.144-.065-.281-.045-.399.071-.353.117-.72.26-1.047.612-1.412 1.243-2.812 1.88-4.212.04-.085.15-.13.228-.19.02.086.079.184.059.256-.52 1.883-1.224 3.695-2.148 5.415m-3.292-40.668c-1.321-.85-2.792-1.295-4.32-1.603-1.693-.34-3.391-.686-5.057-1.144-.82-.229-1.6-.66-2.336-1.099-2.238-1.334-3.091-3.388-2.902-5.926.032-.399.15-.817.344-1.164.137-.235.47-.36.846-.621.28.307.586.517.71.81.182.413.28.877.312 1.328.085 1.08.827 1.708 1.516 2.368.293.282.586.229.723-.19.09-.255.143-.523.22-.784.105-.347.15-.746.359-1.02.358-.478.846-.877 1.51-.713.676.156.956.64.91 1.334-.065 1.19.228 2.276 1.022 3.185.729.83 1.405.765 1.965-.183.182-.308.228-.74.469-.968.266-.262.69-.347 1.047-.51.137.3.345.595.391.909.071.451.052.922.02 1.38-.053.72.39 1.08.936 1.373.508.282.86-.039 1.198-.36.032-.032.052-.085.09-.104.424-.203.938-.654 1.27-.55.742.249.013.85.084 1.289.072.386.111.798.28 1.138.13.268.416.497.683.654 1.803 1.066 2.232 2.78 2.239 4.696 0 .19.04.373.013.556-.046.36-.007.935-.202 1.034-.442.222-1.178-.347-1.405-.916-.658-1.622-1.393-3.205-2.935-4.2m17.602 15.233c1.217.17 2.434.354 3.644.543.065.007.117.118.176.184-.085.026-.163.078-.254.085-.182.013-.364.006-.547.006-.006.026-.006.053-.013.072-1.021-.21-2.036-.412-3.058-.635-.072-.012-.13-.104-.195-.156.084-.033.169-.111.247-.099m6.572 2.865l-.664.223c-1.496-.21-2.934-.4-4.366-.622-.117-.013-.202-.202-.306-.314.124-.02.248-.065.365-.059 1.399.125 2.798.236 4.19.393.274.033.52.248.781.38m-31.248-3.29c-.065-.06-.28-.17-.35-.34-.047-.112.084-.406.2-.452.62-.248 1.263-.445 1.9-.641.034-.013.177.157.164.203-.163.477-1.282 1.243-1.914 1.23m-1.444 16.723c-.547.19-1.165.21-1.75.275-.404.04-.814.04-1.217.06.403-.204.793-.433 1.21-.59.846-.32 1.711-.601 2.57-.883.124-.039.274.02.417.027l.078.268c-.436.287-.833.673-1.308.843m-.826 1.04c-.977.157-1.953.282-2.935.393-.254.032-.514-.033-.768-.06.071-.6.494-.313.82-.352.937-.118 1.874-.301 2.81-.439.15-.026.307.02.606.053-.254.202-.384.386-.533.405m-.827 1.197c-1.21.458-2.427.916-3.65 1.36-.092.033-.235-.065-.417-.124.163-.098.26-.183.378-.228 1.125-.445 2.257-.89 3.39-1.315.13-.046.312.065.468.104-.058.066-.097.177-.169.203m-1.829 5.435c-1.06.216-2.127.4-3.195.602-.35.066-.702.137-1.047.203-.098-.02-.182-.04-.267-.059.098-.04.202-.098.306-.124 1.438-.367 2.876-.733 4.314-1.086.065-.013.15.065.228.105-.11.124-.208.327-.339.36m-6.214.182c.072-.09.13-.235.221-.261 1.77-.53 3.54-1.053 5.317-1.557.17-.046.37.046.566.079l.02.248c-.13.085-.248.21-.391.249-1.829.451-3.663.89-5.499 1.32-.065.02-.156-.051-.234-.078m4.575-3.224c.084-.02.208.092.305.137-.051.066-.09.164-.162.19-.911.38-1.835.752-2.577 1.053-.442-.111-.664-.157-.879-.222-.084-.026-.156-.085-.234-.125.052-.052.091-.137.15-.15 1.132-.301 2.264-.602 3.397-.883m-4.432-1.596c1.139-.248 2.284-.49 3.423-.72.033-.006.137.118.13.158-.02.078-.084.183-.156.202-.898.269-1.796.524-2.7.785-.014-.046-.033-.091-.046-.137-.182 0-.364.013-.546-.007-.098-.006-.196-.078-.293-.124.065-.052.117-.144.188-.157m.651-12.21c.982-.44 1.965-.884 2.967-1.283.24-.098.547-.013.97-.013-.202.183-.254.268-.332.3-1.178.446-2.349.89-3.534 1.322-.103.04-.253-.04-.384-.059.105-.091.196-.209.313-.268m.58-5.965c.526-.242 1.099-.386 1.665-.536.143-.04.416 0 .468.098.072.118.014.353-.058.504-.364.739-1.067.915-1.952 1.079-.143-.118-.501-.262-.553-.478-.046-.183.215-.569.43-.667m2.16-4.244c.592-.458 1.295-.635 2.036-.497.182.032.326.26.488.398-.13.144-.234.366-.403.432-.58.235-1.178.412-1.803.621-.247-.117-.481-.222-.709-.327.13-.216.208-.49.39-.627m2.805 7.168c.65-.301 1.328-.55 2.018-.766.15-.045.37.138.566.216-.085.203-.111.51-.26.596-.619.353-1.27.64-1.881.935-.313-.183-.599-.255-.651-.412-.052-.157.072-.504.208-.57m2.213 7.561c0 .027-.209.131-.339.21-.637-1.073-1.405.032-2.095-.157-.117-.033-.221-.13-.332-.197.091-.065.17-.156.267-.196 1.132-.445 2.258-.889 3.396-1.32.105-.04.254.025.385.045-.059.111-.105.236-.176.327-.17.216-.312.49-.534.602-.319.15-.84.052-.572.686m1.314-4.709c.072-.013.156.066.234.098-.058.066-.104.164-.175.197-1.972.765-3.768 2.008-6.006 2.21-.111-.045-.254-.11-.391-.17.104-.071.202-.17.319-.215 1.503-.628 3-1.276 4.522-1.858.462-.183.996-.19 1.497-.262m-10.984-11.524c-.716.203-1.438.393-2.167.536-.124.027-.293-.157-.436-.248.11-.131.202-.327.345-.38.488-.182 1.002-.313 1.51-.464.006.04.02.079.032.118.221.013.45.02.67.04.085.006.157.058.235.09-.059.105-.105.282-.19.308m-3.604 5.37c-.234-.124-.625-.229-.651-.386-.039-.268.065-.667.26-.844.749-.66 1.718-.778 2.668-.902.066-.007.26.32.241.34-.722.739-1.158 1.897-2.518 1.792m.65 20.25c-1.223.012-2.452-.02-3.676-.04-.592-.007-1.184-.007-1.777-.026-.117 0-.227-.092-.345-.138.13-.045.254-.117.378-.117.957-.013 1.913-.007 2.87-.007v-.046c.872 0 1.737-.006 2.603.007.22 0 .436.072.65.111-.234.092-.468.255-.702.255m-8.896-6.887c-.11.02-.254-.072-.384-.111.104-.085.189-.223.3-.255.989-.295 1.984-.57 2.915-.83.26.078.423.123.592.176-.124.111-.234.294-.377.327-1.009.248-2.024.477-3.046.693m-.364 2.976c-1.386.418-2.772.824-4.113 1.223-.24-.137-.37-.216-.494-.288.097-.091.175-.242.286-.268 1.406-.327 2.811-.648 4.217-.948.117-.026.26.058.39.091-.098.066-.182.164-.286.19m-4.777-15.776c-.696.386-1.412.746-2.05 1.073-.41-.177-.643-.275-.871-.38.123-.222.201-.562.39-.647.729-.314 1.49-.569 2.252-.791.143-.04.37.202.56.32-.092.144-.15.347-.28.425m-1.367 4.873c-1.1.497-2.219.968-3.338 1.42-.215.084-.475.038-.716.051.052-.294 0-.712.169-.856.56-.451 1.178-.844 1.816-1.178.468-.248 1.002-.366 1.347-.49.325.033.494 0 .585.066.183.143.397.32.462.522.04.112-.169.393-.325.465m-2.688 7.986c-.644.288-1.346.45-2.023.667-.052-.046-.156-.105-.15-.15 0-.079.059-.197.124-.23.637-.294 1.275-.614 1.939-.856.436-.157.924-.196 1.386-.294-.423.294-.813.66-1.276.863m-4.613-12.551c-.091.04-.267-.105-.553-.223.416-.477.696-.876 1.054-1.183.475-.4.996-.746 1.516-1.08.163-.104.384-.11.573-.163-.007.17.039.366-.033.503-.553 1.06-1.51 1.662-2.557 2.146m11.915 10.392c1.236-.412 2.479-.81 3.715-1.21.02.053.046.112.065.164l.508.118c-.143.091-.28.216-.443.261-1.262.354-2.525.687-3.793 1.02-.072.014-.163-.045-.247-.071.065-.098.11-.249.195-.282m2.414-10.516c.312-.053.631-.164.937-.125.377.046.742.21 1.113.327-.189.327-.306.785-.593.968-.546.353-1.184.55-1.79.811-.025-.052-.058-.111-.084-.17-.273-.026-.546-.032-.807-.098-.09-.02-.201-.196-.195-.288.04-.53.84-1.327 1.419-1.425m-.456-4.677c.293-.105.612-.176.918-.19.423-.02 1.12-.104 1.223.092.338.648-.495.55-.748.857-.286.346-.638.64-.99.98-.552-.235-1.197-.326-1.281-.594-.202-.615.338-.962.878-1.145m4.588 19.164c1.418-.17 2.843-.32 4.262-.471.078-.007.156.052.234.078-.071.098-.123.268-.208.281-1.315.242-2.629.458-3.813.661-.228 0-.332.033-.403-.006-.17-.08-.326-.197-.482-.295.137-.085.267-.235.41-.248m.937-10.72c1.035-.471 2.07-.936 3.117-1.354.202-.079.488.078.735.124-.104.281-.124.693-.325.824-.84.55-1.744.975-2.798.949-.228-.02-.456-.027-.677-.066-.072-.013-.195-.104-.189-.15.013-.118.059-.294.137-.327m-23.556-1.61c-.514.864-1.041 1.721-1.575 2.571-.065.105-.189.164-.286.242-.02-.137-.007-.294-.072-.399-.234-.34-.221-.627.04-.955.61-.739 1.183-1.51 1.789-2.256.052-.066.189-.066.286-.092l.078.347c-.065.144-.143.353-.26.543M225.785.76c-.137-.583-.573-.916-1.1-.687-.39.176-.813.484-1.015.85-.442.791-.716 1.674-1.126 2.485-.449.89-.93 1.766-1.484 2.59-.156.23-.69.38-.95.288-.195-.072-.325-.595-.305-.91.045-.823.202-1.634.286-2.458.065-.628-.267-1.001-.833-.844-.416.105-.918.347-1.113.687-.377.654-.579 1.412-.826 2.138-.202.596-.28 1.256-.56 1.806-.208.405-.579 1.013-1.151.726-.56-.275-.15-.818.012-1.204.417-.994.222-1.857-.422-2.675-.365-.451-.755-.569-1.321-.334-.957.4-1.328 1.165-1.51 2.12-.143.758-.325 1.517-.58 2.25-.09.261-.435.431-.663.647-.215-.281-.592-.55-.612-.85-.045-.57.104-1.158.176-1.74.072-.582.04-1.157-.579-1.4-.573-.228-1.19-.209-1.62.34-.248.314-.475.68-.606 1.06-.305.903-.546 1.825-.839 2.727-.046.144-.24.242-.365.36-.032-.13-.078-.262-.09-.392-.092-.713-.092-1.452-.28-2.146-.228-.863-.65-1.033-1.38-.588-.319.196-.598.569-.742.922-.201.497-.227 1.066-.384 1.59-.071.228-.273.418-.41.627-.13-.17-.28-.333-.39-.516-.189-.314-.3-.694-.553-.942-.3-.288-.703-.648-1.074-.654-.644-.02-1.06.49-1.275 1.085-.085.249-.104.55-.072.818.085.765-.24 1.289-.807 1.772-1.783 1.524-2.544 3.48-2.323 5.828.026.261-.032.543-.084.811-.163.791-.3.811-1.549.805-.703 0-.52-.419-.547-.812-.045-.673-.136-1.347-.214-2.014-.17-1.498-.573-2.871-1.92-3.767-.859-.57-1.412-1.23-1.048-2.394.098-.32-.182-.85-.43-1.17-.33-.432-.839-.243-1.242-.046-.32.156-.573.438-.866.653-.702.523-1.19.347-1.32-.536-.092-.582.006-1.197-.04-1.785-.071-.91-.67-1.295-1.522-.995-.625.223-1.12.563-1.295 1.289-.085.38-.267.922-.775.778-.318-.091-.67-.49-.767-.824-.19-.64-.26-1.334-.3-2.008-.065-.981-.768-1.962-1.614-2.139-.884-.19-1.873.4-2.27 1.36-.092.21-.137.433-.222.642-.059.163-.137.314-.201.47-.196-.097-.45-.15-.56-.307-.176-.248-.287-.555-.365-.856-.156-.57-.201-1.178-.416-1.714-.228-.562-.384-1.276-1.256-1.25-.813.02-1.464.439-1.73 1.25-.456 1.36-.274 2.714.116 4.042.651 2.21 2.375 3.401 4.314 4.317 2.135 1 4.484 1.19 6.749 1.628 2.603.51 4.594 1.694 5.726 4.16.163.347.26.726.384 1.086-.384-.079-.78-.118-1.152-.249-1.243-.432-2.453-.968-3.716-1.334-.833-.242-1.75.15-1.763.654-.013.674.41 1.184 1.028 1.465 1.074.484 2.154.955 3.234 1.432.287.131.586.256.84.432.123.085.24.308.214.438-.02.105-.253.229-.403.242-1.178.092-2.356.21-3.533.236-3.182.072-6.364-.144-9.553.039-5.375.3-10.776.098-16.119.857-2.205.307-4.45.235-6.637.804-2.414.635-4.887 1.053-7.3 1.694-1.523.405-3 1.014-4.478 1.596-1.132.445-2.264.922-3.332 1.517-1.691.942-2.68 2.57-3.689 4.154-1.653 2.596-2.935 5.343-3.267 8.456-.078.785.345 1.44 1.113 1.616.65.15 1.308.523 1.985.059.032-.02.345.216.357.353.033.262-.07.536-.097.81-.137 1.48-.37 2.957-.39 4.442-.02 1.629.169 3.257.24 4.885.091 1.917.137 3.833.228 5.75.085 1.694.267 3.388.293 5.082.039 2.472-.052 4.944-.046 7.417.007 1.746.091 3.486.137 5.232.032 1.23.169 2.472.065 3.689-.234 2.636-.319 2.027 1.946 2.073 2.577.052 2.824-.307 1.88-2.694-1.041-2.61-1.067-5.279-.91-7.987.201-3.38.455-6.762.682-10.144l-.28-.02c.13-2.786.215-5.579.41-8.365.053-.739.489-1.445.677-2.184.196-.759.755-.713 1.302-.66 2.101.202 3.637 1.83 3.793 3.97.085 1.092.202 2.177.294 3.263.325 3.846.656 7.685-.515 11.459-.039.124-.058.268-.058.405.071 2.93.162 5.86.208 8.79.007.766-.104 1.538-.195 2.296-.065.543-.215 1.08-.267 1.623-.033.3.11.503.508.392.286-.079.644-.17.904-.072.872.333 1.763.15 2.636.196 1.073.059 1.262-.21 1.106-1.262-.026-.177-.117-.347-.163-.524-.586-2.38-1.347-4.741-1.185-7.253.13-1.864.32-3.728.404-5.598.163-3.434.247-6.874.423-10.308.072-1.413.189-2.885 1.653-3.683 1.093-.595 2.284-.954 3.527-.915.442.013.93.307 1.308.589 1.021.771 2.043 1.478 3.422 1.255.404-.065.807-.104 1.21-.137.131-.013.261.046.391.072-.09.098-.169.216-.273.3-.065.053-.17.06-.247.099-.228.124-.449.249-.67.373.221.124.429.307.67.366.306.078.638.111.95.078 1.041-.104 2.082-.261 3.117-.372.39-.04.813-.098 1.165.026.416.144.24.484.071.785-.026.052.195.346.332.366.612.098 1.243.229 1.861.19.625-.04 1.236-.288 1.861-.406.312-.059.469-.013.352.438-.228.883-.046 1.047.852.805.84-.23 1.653-.536 2.486-.778.195-.06.423-.014.631-.014-.085.197-.17.393-.26.59-.137.3-.28.607-.423.908.338.105.709.34 1.008.275.97-.21 1.946-.451 2.863-.824 1.386-.576 2.142-.523 2.727.784.826 1.865 1.601 3.8 2.024 5.782.436 2.041.514 4.173.586 6.273.136 3.898.006 7.796-.398 11.68-.084.864.13 1.146 1.054 1.12 1.003-.027 2.005-.105 3.007-.17 1.236-.079 1.53-.55 1.022-1.649-.137-.288-.3-.57-.469-.844-.481-.804-.67-1.648-.644-2.61.11-4.126.137-8.26.202-12.387.032-1.831.201-3.663.657-5.435.137-.536.527-1.04.924-1.445.124-.131.625.137.956.176.215.026.593.052.638-.046.384-.798 1.367-.64 1.855-1.223.455-.536.832-.222 1.119.125.247.307.481.712.514 1.092.176 2.237.494 4.48.377 6.704-.162 3.329-.637 6.645-1.002 9.968-.104 1-.299 1.988-.416 2.988-.091.727-.182 1.459-.163 2.192.02 1.026.41 1.275 1.393 1.072.481-.104.983-.118 1.47-.19.625-.091 1.263-.137 1.848-.333.755-.255.911-.687.684-1.504-.306-1.093-.892-2.185-.885-3.27 0-5.233.162-10.465.273-15.704.007-.223.052-.451.065-.68.052-.916.26-1.858.11-2.734-.2-1.119-.084-2.178.092-3.264.117-.72.163-1.452.286-2.172.065-.399.13-.856.364-1.157.625-.818.73-1.74.73-2.708 0-.778-.033-1.563.032-2.341.032-.452.039-1.158.859-.589.078.052.43-.138.507-.288.137-.274.176-.602.248-.909.28-1.23-.267-2.793 1.38-3.499.123-.052.194-.307.233-.477.391-1.642.892-3.218 1.907-4.618.488-.674.983-1.177 1.81-1.295 1.132-.15 2.257-.353 3.396-.425 1.432-.079 2.785.216 3.956 1.15 1.64 1.322 3.384 2.009 5.577 1.348 1.048-.314 1.718-.791 2.043-1.772.573-1.734.983-3.454.605-5.357-.54-2.727-2.622-5.16-5.303-5.566-3.11-.458-6.247-.739-9.357-1.177-.977-.137-1.966-.412-2.844-.844-.775-.38-.683-.68.045-1.197.964-.673 1.907-1.393 2.838-2.119.143-.111.182-.373.267-.562-.196-.072-.404-.216-.593-.203-.82.04-1.64.072-2.44.222-1.25.23-2.486.55-3.735.83-.755.165-.82.04-.722-.699.13-1 .663-1.707 1.464-2.21 1.887-1.191 3.976-1.832 6.182-1.963 2.824-.17 5.66-.229 8.492-.346 2.87-.124 5.433-.936 7.509-3.1.865-.916 1.431-1.995 2.167-2.976 1.171-1.564 1.34-3.232.91-5.05M243.228 73.685c-.082.257-.325 1.329-.439 1.315-1.057-.132-.543-1.09-.702-1.714-.062-.246-.044-.524-.018-.783.14-1.404-.27-2.246-1.761-2.705-1.691-.521-3.263-1.454-4.879-2.226-.65-.31-1.245-.405-1.97-.13-.47.177-1.247.19-1.574-.097-.468-.41-.848-1.149-.884-1.771-.023-.396.579-1.066 1.02-1.199.687-.207 1.517-.321 2.077.51 1.677 2.488 4.4 3.091 6.962 3.962.13.044.56-.296.55-.436-.114-1.762-.242-3.527-.473-5.276-.05-.378-.5-.727-.812-1.039-1.282-1.277-2.625-2.494-3.858-3.819-.568-.61-1.155-.697-1.891-.65-.73.046-1.378-.146-1.764-.912-.485-.964-.49-1.94.07-2.803.216-.333.92-.634 1.268-.52.95.313 2.148.683 2.187 1.908.064 2.054 1.52 3.04 2.701 4.272.134.14.283.267.437.383.486.365.978.72 1.468 1.08-.029-.639-.037-1.279-.091-1.915-.112-1.305-.292-2.607-.358-3.915-.04-.785-.513-1.041-1.059-1.435-1.387-1.002-1.165-2.802.296-3.593.563-.305.967-.188 1.382.14.975.768 1.208 2.174.572 3.34-.12.22-.42.428-.404.622.14 1.684.304 3.367.525 5.042.082.623.414.748.869.209 1.074-1.275 2.218-2.392 2.12-4.393-.082-1.7 1.35-2.42 2.876-1.916.81.267 1.268.746 1.206 1.513-.069.844-.38 1.703-1.361 1.923-2.886.647-3.88 3.265-5.362 5.373-.1.144-.133.383-.109.566.206 1.62.435 3.236.65 4.855.06.446.15.793.683.408 1.461-1.057 2.958-2.066 4.368-3.192.318-.254.362-.896.488-1.372.526-1.989 2.03-2.78 3.596-1.877 1.533.885 1.567 2.247.056 3.141-.38.224-.86.513-1.24.448-1.418-.243-2.38.689-3.433 1.308-1.103.648-2.077 1.521-3.147 2.235-.958.641-1.467 1.366-1.082 2.617.207.672.15 1.429.244 2.518" transform="translate(-8 -85) translate(8 85)"/>
                <path fill="#0064AA" d="M218.985 66.68c.044.893-.251 1.725-1.16 2.228-.483.267-.845.55-.792 1.205.15 1.835.25 3.673.384 5.51.045.625.368.555.774.287.87-.578 1.748-1.143 2.625-1.708.759-.49 1.456-.887 1.393-2.087-.055-1.058.657-1.453 1.717-1.346.945.095 2.123 1.254 2.072 2.04-.048.756-1.454 2.311-2.154 2.37-.123.01-.308.012-.369-.062-1.012-1.228-1.793-.264-2.623.266-.495.315-.999.616-1.494.93-1.338.844-2.308 1.802-1.714 3.655.207.643.555 1.98-.377 2.03-1.027.056-.42-1.242-.588-1.93-.031-.125-.028-.268-.003-.395.32-1.673-.274-2.694-1.958-3.146-.662-.178-1.276-.66-1.829-1.107-.657-.533-1.23-.757-2.12-.463-1.216.401-2.878-1.214-2.763-2.525.072-.82 1.043-1.378 1.945-1.016.786.316 1.393.833 1.79 1.692.796 1.725 2.4 2.463 4.087 3.008.6.193.814-.084.762-.717-.135-1.636-.155-3.285-.365-4.909-.085-.662-.418-1.387-.86-1.883-.594-.667-.726-1.372-.662-2.18.113-1.43 1.165-2.516 2.317-2.421 1.077.088 1.933 1.21 1.965 2.674" transform="translate(-8 -85) translate(8 85)"/>
                <path fill="#FFD9B0" d="M268.719 118.545c.272-.718.308-4.625.266-7.26-2.4-.35-4.283-.294-4.931-.259-.115 2.3-.088 5.286.511 7.814 1.872.262 3.955.227 4.154-.295M272.995 118.383c.08-.144.25-.196.39-.117.22.127.775-.14 1.324-.802.708-.853 1.635-2.72.62-4.302-.49-.76-.987-1.151-1.48-1.162-.631-.01-1.102.636-1.107.643-.01.013-.02.027-.032.038-1.242 1.28-.564 8.283-.14 11.319 1.744-.613 3.215-1.446 4.43-2.424l-3.914-2.77c-.13-.093-.17-.278-.09-.423" transform="translate(-8 -85) translate(8 85)"/>
                <path fill="#0064AA" d="M272.17 112.51c.072-.099.37-.474.83-.703-1.24-.367-2.448-.626-3.572-.807.025 1.68.072 7.114-.35 8.199-.276.711-1.53.904-2.804.904-.843 0-1.69-.085-2.274-.158.443 1.524 1.103 2.855 2.069 3.769 1.413 1.337 3.37 1.631 5.814.883-.266-1.89-1.348-10.332.287-12.087M282 112c-.014-.174-.032-.347-.057-.517-.385-2.649-2.005-4.38-4.128-4.412l-.238-.003-.045-.23c-.035-.167-.913-4.113-7.565-3.451-4.356.434-6.54-.489-7.604-1.337-.098-.079-.196-.045-.233-.027-.031.014-.132.073-.13.208.022 1.29.304 3.616 1.92 4.868 1.175-.06 11.09-.381 18.08 4.901" transform="translate(-8 -85) translate(8 85)"/>
                <path fill="#FFDC00" d="M263.325 107.02c-.07.455-.223 1.548-.325 2.97 2.006-.087 11.67-.207 18.575 5.01.284-.937.423-1.875.425-2.78-6.914-5.44-17.012-5.27-18.675-5.2" transform="translate(-8 -85) translate(8 85)"/>
                <path fill="#0064AA" d="M275.472 113.373c.922 1.518.378 3.42-.571 4.631-.3.384-.61.659-.901.811l2.915 2.185c1.527-1.435 2.535-3.162 3.085-4.928-1.48-1.362-3.127-2.353-4.78-3.072.086.115.17.237.252.373M265.999 113.957c.017.551-.192 1.018-.468 1.042-.275.024-.513-.404-.53-.956-.017-.551.192-1.018.468-1.042.275-.024.513.404.53.956M279 194.004c-1.102-.032-4.06.097-5.706 2.222-.97 1.252-1.12 2.9-1.23 4.103-.022.228-.041.435-.064.625l2.364 3.046c2.03-4.935 4.005-8.794 4.636-9.996" transform="translate(-8 -85) translate(8 85)"/>
                <path fill="#FFD9B0" d="M265.48 164.498l-.9-.06c-3.003-.208-5.376-.372-9.88 1.353-2.694 1.033-2.83 1.635-2.837 1.7-.005.057.043.119.143.183.893.574 4.152.447 6.045-.702.089-.054.2-.056.29-.007.091.05.15.145.154.25.001.023.12 2.384 1.784 3.373 1.317.781 3.251.535 5.75-.734.145-.074.321-.014.394.132.072.146.014.324-.13.398-1.63.827-3.05 1.241-4.251 1.241-.783 0-1.472-.176-2.064-.528-1.352-.806-1.82-2.308-1.984-3.182-.896.487-10.496 5.734-11.994 7.815 1.217-.161 6.403-2.658 11.081-5.174.134-.072.3-.03.383.099.083.127.056.299-.062.394l-4.543 3.676-.622 8.275c.343-.026.95-.16 1.516-.723.79-.788 1.641-2.595 1.208-6.732-.012-.112.04-.22.134-.282l4.726-3.05c.123-.079.285-.055.38.057.096.113.094.278-.002.39l-2.952 3.398.46 6.304c.322-.113.84-.377 1.246-.98.697-1.032.792-2.693.275-4.803-.026-.107.009-.22.09-.293l3.778-3.375c.11-.097.272-.099.383-.005.112.095.137.257.061.383l-2.011 3.319c.19.352.79 1.297 1.83 1.563.912.233 1.963-.1 3.12-.988.326-.685.617-1.71.343-1.953-.088-.079-.66-.38-3.257 1.387-.135.092-.317.056-.407-.08-.09-.136-.055-.32.08-.412 2.117-1.441 3.379-1.867 3.971-1.34.079.069.137.154.183.245.651-.192 3.136-1.182 6.608-5.709-.254-1.937-.832-4.252-1.796-7.321-.932.732-3.72 2.688-6.724 2.498" transform="translate(-8 -85) translate(8 85)"/>
                <path fill="#0064AA" d="M272.427 216c-.934.903-12.964 12.786-16.079 27.766-.8 3.845-.22 7.106 1.722 9.693 4.538 6.045 15.09 6.528 15.197 6.533.011 0 .021.006.032.008.596-2.18 9.52-3.828 11.701-4.2-1.406-3.38-11.148-27.159-12.573-39.8M269 185.796c-.955-.52-3.021-1.176-6.917-.522-5.366.9-10.905 4.939-12.083 5.836l6.772 9.89 4.762-5.996c-.302-.902-.207-2.271.289-4.091 1.168-4.288 5.3-5.012 7.177-5.117M287.945 217.98c-2.695 10.443 1.03 26.877 3.031 35.707.387 1.703.719 3.172.944 4.313 3.73-.575 6.102-1.856 7.246-3.916 1.727-3.11.779-8.085-2.898-15.209-3.663-7.096-5.618-13.292-6.613-17.24-.632-2.506-.966-4.446-1.137-5.635-.213.67-.406 1.33-.573 1.98" transform="translate(-8 -85) translate(8 85)"/>
                <path fill="#FFD9B0" d="M280.044 193.306c1.03-2.183 10.44-22.566 7.328-31.23-1.013-2.818-1.966-6.004-2.803-9.076l-12.7 3.69c5.486 15.42 4.796 17.036 1.308 25.178-.546 1.274-1.165 2.718-1.837 4.401l-.082.206-.223-.016c-.016-.001-1.584-.11-3.302.412-2.26.687-3.704 2.092-4.29 4.177-.777 2.765-.36 3.768-.042 4.12.329.363.766.311.82.303-.017-.685.12-1.554.406-2.74.882-3.66 3.436-4.425 3.544-4.456.161-.046.33.047.376.207.046.16-.047.329-.208.375-.103.03-2.327.722-3.12 4.016-.762 3.16-.426 3.763 1.114 4.732-.115-.794.01-1.795.289-3.117.712-3.388 3.575-4.504 3.697-4.55.157-.059.331.02.39.176.06.156-.018.33-.175.39-.026.01-2.676 1.053-3.317 4.108-.671 3.192-.379 4.062 1.648 4.897-.07-.728.115-1.475.331-2.334.11-.435.223-.884.322-1.392.557-2.85 3.253-4.183 3.368-4.24.15-.072.332-.01.406.14.073.151.01.332-.14.405-.026.012-2.54 1.263-3.037 3.81-.102.525-.223 1.003-.33 1.425-.455 1.808-.706 2.805 1.065 4.285.524.436.679.391.679.39.158-.064.234-.901.284-1.455.123-1.348.291-3.194 1.423-4.66 2.097-2.715 5.853-2.643 6.808-2.577M307 146.447c1.492 3.316 3.205 7.32 4.823 11.553.643-1.955 2.33-8.29-.072-15L307 146.447z" transform="translate(-8 -85) translate(8 85)"/>
                <path fill="#0064AA" d="M280.742 139.739c-.032-.167.071-.328.23-.361.16-.033.315.074.347.24.026.133 2.618 13.46 5.822 22.784 1.097 3.19.8 8.091-.872 14.598L317 173.344c-3.766-14.738-15.563-34.315-15.705-34.548-.087-.144-.045-.333.092-.423.138-.09.32-.047.406.096.056.092 1.93 3.201 4.41 7.842l5.417-3.329c-.064-.138-.127-.277-.196-.415-11.954-24.12-25.471-22.981-34.599-20.025-4.044 1.31-6.761 3.52-8.305 6.754-2.576 5.4-1.883 13.623 2.12 25.142.257.741.502 1.452.737 2.139l12.343-3.747c-1.766-6.862-2.96-13.001-2.978-13.091" transform="translate(-8 -85) translate(8 85)"/>
                <g transform="translate(-8 -85) translate(8 85) translate(273 173)">
                    <mask id="7v4x0g36zh" fill="#fff">
                        <use xlink:href="#aw4k2q1vbg"/>
                    </mask>
                    <path fill="#FFDC00" d="M43.342 58.029c-4.708-7.65-10.044-16.32-9.259-22.224.602-4.525 2.978-7.842 5.494-11.354 3.28-4.58 6.673-9.317 6.673-17.353 0-2.09-.372-4.473-1.004-7.012L13.92 3.724c-.386 1.415-.833 2.899-1.35 4.462-2.205 6.665-4.846 12.265-4.873 12.32l-.092.194h-.008c-.613 1.18-4.15 8.124-6.92 16.208-2.998 8.75 12.636 45.502 12.794 45.873.037.085.032.183-.012.265-.044.082-.123.138-.214.153-4.424.705-11.568 2.378-11.9 3.872-.049.22.114.463.484.72 2.5 1.738 13.323 1.561 16.31-.268.524-.32.77-.662.73-1.015-.129-1.14-.56-3.192-1.104-5.791-1.86-8.87-5.323-25.38-2.8-35.95 1.677-7.021 5.942-15.28 9.225-20.971 3.552-6.16 6.753-10.725 6.785-10.77.087-.124.25-.163.381-.091.132.071.19.23.138.373-.06.162-6.083 16.35-7.692 21.825-2.652 9.024 20.515 34.299 20.749 34.553.07.075.096.182.07.282-.025.1-.1.18-.197.212-1.222.394-2.973.655-4.666.908-2.087.312-4.947.74-5.083 1.354-.026.12.132.377.657.733 2.321 1.572 8.896 1.619 12.342.088.819-.364 1.825-.988 1.967-1.888.39-2.478-2.86-7.757-6.3-13.346" mask="url(#7v4x0g36zh)"/>
                </g>
            </g>
        </g>
    </g>
</svg>
